<?xml version="1.0" standalone="no"?>
<!DOCTYPE svg PUBLIC "-//W3C//DTD SVG 20010904//EN"
 "http://www.w3.org/TR/2001/REC-SVG-20010904/DTD/svg10.dtd">
<svg version="1.0" xmlns="http://www.w3.org/2000/svg"
 width="940.000000pt" height="940.000000pt" viewBox="0 0 940.000000 940.000000"
 preserveAspectRatio="xMidYMid meet">
<metadata>
Created by potrace 1.14, written by Peter Selinger 2001-2017
</metadata>
<g transform="translate(0.000000,940.000000) scale(0.100000,-0.100000)"
fill="#000000" stroke="none">
<path d="M0 4700 l0 -4700 980 0 980 0 0 90 0 90 85 0 c80 0 88 -2 110 -26 15
-16 25 -39 25 -56 0 -42 17 -68 55 -84 28 -11 113 -14 440 -14 379 0 405 1
405 18 0 15 -7 50 -25 130 -4 17 -1 22 15 22 18 0 22 6 19 27 0 3 6 10 15 15
23 13 20 36 -6 40 l-23 3 23 13 c19 11 33 11 75 1 62 -14 534 -21 543 -8 3 5
22 9 42 9 41 0 117 19 109 26 -3 3 -23 0 -45 -5 -24 -7 -157 -11 -338 -11
-290 0 -334 1 -335 11 -1 15 15 39 27 39 12 0 19 19 15 43 -3 17 31 18 83 3
68 -20 100 -20 167 0 53 16 99 53 99 78 0 7 14 25 31 42 33 31 59 80 59 112 0
18 -11 20 -107 27 -88 7 -101 10 -73 16 32 7 114 4 168 -7 15 -3 22 0 22 11 0
8 -6 15 -12 15 -10 0 -10 2 -1 8 6 4 12 27 14 52 2 35 0 45 -11 43 -61 -9
-395 -43 -421 -43 -70 0 -15 9 176 30 174 19 333 46 284 49 -19 1 -30 33 -19
51 4 7 6 46 3 86 -5 67 -4 74 13 74 11 0 60 4 109 9 143 15 482 23 502 12 10
-5 38 -11 63 -13 l45 -4 0 -77 c-1 -42 -4 -79 -8 -83 -12 -12 -117 -25 -212
-25 l-90 -1 90 -9 c50 -4 118 -10 153 -12 l62 -3 6 -212 5 -211 -23 -5 c-13
-3 -45 -9 -73 -13 l-50 -8 71 -3 72 -3 -3 -179 -4 -180 2510 0 2509 0 0 4700
0 4700 -810 0 -810 0 0 -25 c0 -28 -43 -75 -89 -99 -17 -9 -31 -21 -31 -27 0
-6 -9 -8 -21 -4 -14 5 -19 3 -15 -3 9 -15 -37 -44 -58 -36 -9 3 -16 10 -16 15
0 13 18 11 22 -3 2 -6 10 -8 16 -4 24 15 10 21 -49 22 -56 1 -59 0 -44 -15 13
-13 17 -14 24 -3 7 11 10 10 15 -3 3 -9 6 -18 6 -19 0 -1 -16 -3 -35 -4 -26
-2 -35 1 -35 13 0 9 -6 15 -12 14 -7 -1 -29 0 -48 1 l-35 3 40 7 c33 6 29 7
-26 6 -37 0 -62 -4 -55 -8 6 -5 3 -7 -9 -7 -25 1 -75 17 -57 18 7 1 12 16 12
41 l0 40 -40 0 c-40 0 -40 0 -40 -38 0 -37 2 -39 50 -56 63 -23 59 -30 -9 -15
-51 11 -51 11 -51 50 0 21 -4 39 -10 39 -12 0 -12 38 1 65 7 15 8 12 4 -15 -4
-28 -2 -31 6 -17 6 10 9 28 7 40 -2 17 -11 23 -40 25 l-36 3 1 -43 c1 -115 -1
-126 -25 -121 -13 3 -30 7 -38 10 -29 11 -55 10 -87 -3 -17 -8 -38 -12 -45 -9
-17 6 -45 -11 -35 -22 5 -4 12 -1 17 7 5 8 12 11 16 7 13 -13 -29 -37 -43 -25
-10 8 -13 4 -13 -15 0 -14 5 -29 11 -33 7 -4 9 -21 5 -43 -4 -25 -2 -31 4 -21
8 13 10 12 10 -2 0 -14 8 -18 35 -18 38 0 59 -25 34 -40 -9 -6 -5 -11 15 -16
21 -5 24 -9 14 -16 -8 -5 -3 -6 16 -2 34 8 48 -9 36 -42 -7 -16 -5 -24 6 -28
9 -3 12 -2 9 5 -4 5 -4 22 0 36 l6 26 29 -34 c15 -19 26 -38 23 -43 -3 -5 0
-6 8 -4 8 3 23 1 34 -5 11 -6 33 -10 48 -9 18 2 26 -2 22 -8 -3 -6 -10 -8 -15
-5 -4 3 -14 -3 -21 -13 -13 -15 -12 -16 4 -3 9 7 17 9 17 3 0 -15 -28 -34 -40
-27 -5 3 -23 -4 -38 -16 -16 -13 -20 -20 -9 -16 10 4 23 7 28 7 6 0 7 5 4 10
-3 6 -1 10 4 10 19 0 12 -17 -14 -34 -14 -9 -25 -15 -25 -13 0 2 -29 -25 -65
-60 -39 -39 -69 -61 -76 -57 -7 4 -9 3 -6 -3 4 -6 -4 -20 -18 -33 -22 -21 -25
-21 -40 -6 -19 18 -31 20 -40 6 -4 -6 1 -7 11 -3 11 4 15 2 13 -6 -3 -7 -8
-12 -13 -11 -4 1 -16 -9 -26 -21 -11 -12 -26 -19 -35 -15 -8 3 -15 2 -15 -3 0
-5 -17 -20 -39 -35 -21 -15 -43 -39 -50 -54 -10 -25 -10 -25 3 -8 9 10 17 24
19 30 2 6 7 9 10 6 3 -3 -2 -22 -10 -42 l-15 -37 -129 1 c-135 1 -176 -13 -67
-23 l63 -6 -75 -1 c-41 0 -95 3 -120 7 l-45 8 43 2 c23 0 42 6 42 11 0 10 -86
13 -225 10 -69 -1 -196 23 -239 47 -28 15 -78 14 -146 -3 -14 -3 -79 -7 -145
-10 -134 -4 -132 -5 -134 76 -1 39 -17 53 -70 65 -26 5 -30 9 -20 17 11 7 9 8
-5 4 -27 -9 -146 33 -146 52 0 8 2 13 6 10 8 -9 95 16 95 27 -1 6 -47 13 -103
16 -57 3 -113 11 -125 17 -12 7 -33 12 -47 12 -35 0 -56 10 -56 26 0 8 -5 14
-11 14 -5 0 -7 -4 -4 -10 3 -5 -2 -10 -13 -10 -26 0 -82 20 -82 30 0 9 -132
74 -144 71 -11 -3 -52 16 -76 35 -8 6 -45 16 -83 22 -37 6 -80 17 -96 25 -25
12 -29 12 -24 1 3 -8 1 -14 -4 -14 -5 0 -9 9 -10 20 -2 22 -4 22 55 11 30 -6
42 -5 39 3 -2 6 -22 14 -45 17 -40 5 -70 19 -42 19 19 0 -40 42 -89 65 -22 10
-38 22 -35 26 3 5 -3 6 -12 2 -16 -6 -17 4 -11 130 l6 137 -160 0 -161 0 4
-47 c2 -27 8 -51 13 -55 28 -21 -48 -4 -100 22 -33 16 -67 30 -75 30 -8 0 -33
11 -55 25 l-40 24 -1917 1 -1918 0 0 -4700z m7791 4555 c-3 -5 -7 -2 -9 8 -2
9 -7 15 -12 12 -5 -3 -7 -13 -4 -23 5 -14 4 -14 -6 1 -10 15 -8 22 7 36 17 17
18 17 24 -3 3 -12 3 -25 0 -31z m-624 -7 c-3 -7 -5 -2 -5 12 0 14 2 19 5 13 2
-7 2 -19 0 -25z m578 -8 c-3 -4 2 -24 10 -44 22 -52 20 -56 -31 -56 -30 0 -43
4 -38 11 4 6 20 8 40 4 42 -7 42 0 3 48 -23 28 -27 37 -14 37 9 0 13 4 10 10
-3 6 1 7 9 4 9 -3 14 -10 11 -14z m40 -48 c-6 -15 -8 -15 -15 3 -12 28 -12 43
0 25 8 -13 10 -12 11 5 1 18 2 18 6 2 3 -10 2 -26 -2 -35z m-365 9 c0 -3 -25
-6 -55 -7 -46 0 -51 1 -32 10 22 12 87 9 87 -3z m280 9 c0 -5 6 -10 14 -10 7
0 16 -9 19 -20 6 -22 -4 -19 -37 9 -17 15 -18 15 -15 -8 3 -20 -1 -26 -21 -31
-21 -6 -15 -9 30 -17 l55 -11 -42 -1 c-23 0 -54 4 -70 10 -15 7 -39 11 -52 10
-18 -1 -10 8 35 39 59 40 84 49 84 30z m-243 -16 c-3 -3 -12 -4 -19 -1 -8 3
-5 6 6 6 11 1 17 -2 13 -5z m-29 -21 c-10 -2 -26 -2 -35 0 -10 3 -2 5 17 5 19
0 27 -2 18 -5z m104 -15 c-6 -6 -16 -7 -22 -3 -9 6 -9 9 1 16 17 10 34 0 21
-13z m-3067 -96 c-3 -3 -11 0 -18 7 -9 10 -8 11 6 5 10 -3 15 -9 12 -12z m-8
-68 c-3 -3 -12 -4 -19 -1 -8 3 -5 6 6 6 11 1 17 -2 13 -5z m2733 -14 c0 -11
-4 -20 -9 -20 -6 0 -9 9 -8 20 1 11 5 20 9 20 4 0 8 -9 8 -20z m63 -7 c-7 -2
-19 -2 -25 0 -7 3 -2 5 12 5 14 0 19 -2 13 -5z m-93 -13 c0 -5 -4 -10 -10 -10
-5 0 -10 5 -10 10 0 6 5 10 10 10 6 0 10 -4 10 -10z m140 -20 c-19 -16 -39
-29 -45 -30 -5 0 6 14 25 30 19 16 39 30 45 30 5 0 -6 -13 -25 -30z m-80 16
c0 -3 -4 -8 -10 -11 -5 -3 -10 -1 -10 4 0 6 5 11 10 11 6 0 10 -2 10 -4z m198
-2 c12 -4 22 -12 22 -19 0 -8 12 -27 26 -44 14 -17 21 -31 15 -31 -5 0 -13 5
-16 10 -4 6 -11 7 -17 4 -6 -4 -8 -2 -5 4 9 13 -2 44 -14 37 -4 -3 -6 -12 -2
-20 3 -9 -1 -15 -10 -15 -10 0 -15 7 -12 20 3 16 0 18 -24 14 -33 -7 -49 10
-31 31 13 16 32 18 68 9z m-2962 -42 c-4 -3 -14 2 -24 12 -16 18 -16 18 6 6
13 -6 21 -14 18 -18z m3083 12 c10 -9 -35 -3 -49 6 -11 8 -7 9 15 4 17 -4 32
-8 34 -10z m-2802 -5 c16 -6 23 -13 15 -16 -6 -3 -10 -9 -6 -14 5 -9 -66 -3
-96 8 -8 4 -24 5 -35 4 l-20 -3 20 16 c24 18 82 21 122 5z m2500 5 c-3 -3 -12
-4 -19 -1 -8 3 -5 6 6 6 11 1 17 -2 13 -5z m386 -22 c-24 -4 -32 -21 -10 -23
10 0 10 -2 0 -6 -26 -10 -12 -21 25 -18 34 2 35 2 7 -5 -23 -6 -25 -8 -8 -9
12 0 25 -5 28 -11 7 -12 -12 -12 -40 -1 -11 5 -28 4 -37 -1 -12 -5 -18 -5 -18
2 0 5 5 10 11 10 5 0 7 5 4 10 -4 6 -4 23 0 39 5 24 9 27 33 22 25 -5 25 -6 5
-9z m-286 2 c-3 -3 -12 -4 -19 -1 -8 3 -5 6 6 6 11 1 17 -2 13 -5z m-2476 -30
c33 -15 58 -28 56 -30 -4 -4 -124 40 -133 49 -15 15 21 6 77 -19z m2522 19
c-7 -2 -19 -2 -25 0 -7 3 -2 5 12 5 14 0 19 -2 13 -5z m340 0 c-7 -2 -21 -2
-30 0 -10 3 -4 5 12 5 17 0 24 -2 18 -5z m-404 -9 c17 -4 28 -10 25 -15 -3 -5
12 -9 34 -9 21 0 42 -3 46 -7 4 -5 11 -8 14 -9 39 -3 75 -21 92 -44 22 -30 28
-56 7 -28 -9 11 -18 14 -28 7 -12 -7 -12 -9 2 -9 21 0 66 -43 51 -48 -7 -2
-12 -11 -12 -19 0 -13 3 -13 15 -3 11 9 15 9 15 1 0 -14 -48 -33 -62 -25 -6 4
-13 3 -17 -2 -9 -14 -61 -35 -61 -25 0 5 -19 11 -42 15 -33 5 -45 3 -54 -9 -6
-8 -18 -15 -27 -15 -9 0 -22 -10 -28 -22 -11 -20 -10 -21 2 -11 9 7 20 8 29 3
9 -6 1 -12 -31 -20 -24 -6 -51 -13 -59 -17 -8 -3 -31 -7 -50 -10 -19 -2 -48
-8 -64 -14 -38 -12 -56 -12 -56 2 0 6 9 8 23 4 16 -5 13 0 -13 19 -19 15 -34
29 -32 31 1 3 -1 5 -4 4 -4 0 -10 5 -15 12 -4 8 -12 10 -16 5 -7 -7 11 -25 47
-46 8 -5 11 -12 7 -16 -4 -4 -22 6 -39 24 -31 31 -31 32 -13 52 10 11 23 20
29 19 6 0 6 -3 -1 -6 -15 -5 -17 -23 -4 -23 5 0 13 10 16 23 7 23 51 67 67 67
5 0 7 4 3 9 -6 11 7 24 64 65 23 17 41 34 41 38 0 12 47 58 58 58 5 0 23 -3
41 -6z m244 -39 c-7 -21 -13 -19 -13 6 0 11 4 18 10 14 5 -3 7 -12 3 -20z
m-2848 -10 c17 -6 37 -20 45 -30 14 -17 12 -18 -33 -11 -26 4 -65 14 -85 21
l-37 15 45 -4 c25 -2 37 -1 28 1 -10 2 -18 9 -18 14 0 6 -10 8 -22 4 -18 -5
-20 -4 -8 4 15 11 32 8 85 -14z m95 14 c13 -9 12 -10 -3 -5 -10 3 -16 2 -13
-3 4 -5 29 -12 56 -16 28 -4 50 -11 50 -16 0 -16 -104 2 -117 20 -19 27 -1 40
27 20z m2890 -19 c-6 -11 -12 -20 -14 -20 -2 0 -2 9 1 20 3 11 9 20 15 20 5 0
4 -9 -2 -20z m34 -5 c-4 -8 -10 -15 -15 -15 -4 0 -6 7 -3 15 4 8 10 15 15 15
4 0 6 -7 3 -15z m-2772 -26 c16 -8 18 -13 8 -19 -9 -6 1 -12 30 -21 24 -7 38
-15 32 -17 -15 -5 -132 38 -132 49 0 7 17 17 33 18 5 1 18 -4 29 -10z m-84
-16 c-10 -2 -26 -2 -35 0 -10 3 -2 5 17 5 19 0 27 -2 18 -5z m192 -12 c0 -5
-9 -7 -20 -4 -11 3 -20 7 -20 9 0 2 9 4 20 4 11 0 20 -4 20 -9z m61 -19 c-7
-2 -18 1 -23 6 -8 8 -4 9 13 5 13 -4 18 -8 10 -11z m2545 3 c10 -8 15 -14 9
-14 -5 0 -19 6 -29 14 -11 8 -15 15 -10 15 6 0 19 -7 30 -15z m-26 -35 c-8 -5
-19 -10 -25 -10 -5 0 -3 5 5 10 8 5 20 10 25 10 6 0 3 -5 -5 -10z m-2570 -35
c0 -8 -4 -15 -10 -15 -5 0 -7 7 -4 15 4 8 8 15 10 15 2 0 4 -7 4 -15z m2630
-30 c0 -8 -7 -15 -15 -15 -9 0 -12 6 -9 15 4 8 10 15 15 15 5 0 9 -7 9 -15z
m-320 -4 c0 -5 10 -11 23 -13 19 -4 17 -6 -13 -15 -39 -11 -54 -5 -44 20 6 18
34 24 34 8z m340 -95 c10 -13 10 -16 -1 -16 -8 0 -22 12 -33 26 -18 26 -18 26
1 16 11 -6 25 -18 33 -26z m-738 5 c-2 -8 3 -11 12 -8 8 3 20 -1 27 -9 11 -13
10 -15 -2 -13 -7 1 -27 -3 -42 -9 -16 -7 -33 -12 -39 -12 -15 0 -48 30 -48 44
1 6 9 1 19 -11 11 -14 22 -18 31 -13 7 4 20 6 29 3 13 -4 13 -3 2 5 -7 5 -11
14 -8 19 3 5 0 10 -7 10 -8 0 -12 -6 -9 -14 3 -7 -2 -13 -11 -13 -19 0 -22 26
-3 34 21 9 52 1 49 -13z m656 7 c7 -7 12 -21 12 -33 0 -12 13 -42 29 -67 l29
-45 -97 -7 c-53 -3 -174 -13 -268 -23 -194 -18 -285 -12 -291 20 -3 15 1 17
23 11 15 -4 30 -2 34 3 3 6 24 13 46 17 39 6 39 6 15 -8 -14 -9 -20 -15 -14
-16 6 0 22 8 35 18 13 10 52 26 87 36 34 9 104 32 154 51 60 22 101 32 116 28
17 -4 23 -2 18 5 -4 6 5 12 21 15 16 2 30 5 34 6 3 0 10 -4 17 -11z m132 -22
c0 -2 -7 -7 -16 -10 -8 -3 -12 -2 -9 4 6 10 25 14 25 6z m-31 -37 c4 7 8 -2 8
-20 0 -31 0 -31 -13 -7 -7 12 -13 30 -12 38 0 9 2 8 5 -4 3 -13 7 -15 12 -7z
m28 -56 c-2 -16 -4 -5 -4 22 0 28 2 40 4 28 2 -13 2 -35 0 -50z m-1808 11 c19
-13 22 -23 17 -48 -4 -22 -3 -27 4 -16 5 8 10 24 10 34 0 17 6 18 74 13 40 -4
111 -15 157 -26 124 -29 289 -42 397 -33 51 4 95 6 97 4 10 -10 -16 -41 -30
-36 -10 4 -13 2 -10 -8 3 -8 -1 -21 -10 -28 -8 -7 -15 -21 -15 -31 0 -10 -5
-21 -12 -25 -7 -4 -8 -3 -4 4 5 8 1 10 -9 6 -11 -5 -13 -10 -6 -17 6 -6 -7
-31 -40 -72 -27 -34 -45 -66 -41 -70 4 -5 -1 -5 -11 -2 -11 4 -16 3 -12 -4 4
-5 1 -17 -6 -25 -10 -12 -14 -12 -20 -2 -5 8 -8 6 -7 -9 1 -11 -13 -40 -32
-62 -19 -23 -49 -57 -65 -77 l-31 -36 -369 -2 c-204 -1 -413 1 -465 6 -52 4
-134 11 -182 14 -47 4 -91 10 -97 14 -6 3 -14 55 -18 116 l-6 110 86 57 c48
31 96 57 107 57 16 0 20 7 20 33 0 25 7 39 30 55 26 19 30 29 30 68 l0 46 68
-7 c90 -10 134 -13 215 -16 54 -1 67 -5 67 -18 1 -13 3 -13 16 4 15 20 16 20
40 -10 14 -16 32 -42 41 -57 9 -14 27 -31 40 -37 13 -6 22 -15 19 -20 -4 -5 4
-7 16 -3 15 4 19 2 13 -7 -9 -15 17 -3 50 24 19 15 19 15 -10 14 -62 -4 -75 0
-75 24 0 16 -3 18 -9 9 -6 -11 -14 -6 -30 17 -12 17 -19 36 -16 41 4 6 1 9 -5
8 -6 -2 -19 7 -27 20 -15 21 -14 22 9 22 13 0 34 -7 47 -16z m-610 -14 c-13
-11 -35 -30 -49 -43 -63 -61 -103 -73 -98 -30 2 21 15 33 68 60 76 38 119 46
79 13z m-176 -136 c-10 -8 -34 -23 -54 -34 -21 -11 -44 -27 -53 -35 -15 -15
-16 -15 -15 7 3 64 13 79 74 111 l60 32 3 -33 c2 -24 -2 -38 -15 -48z m1861
69 c14 -14 102 -32 156 -32 30 -1 96 6 145 14 50 9 157 18 239 22 138 6 149 5
143 -11 -4 -9 -3 -15 1 -12 4 2 18 -11 32 -31 28 -41 20 -66 -24 -71 -14 -2
-26 -7 -26 -12 0 -5 -17 -14 -37 -20 -21 -6 -63 -24 -93 -40 -42 -22 -59 -26
-73 -18 -10 5 -21 7 -24 4 -4 -3 -1 -6 5 -6 7 0 12 -5 12 -11 0 -7 -10 -9 -25
-7 -13 3 -22 1 -19 -3 3 -5 -2 -9 -11 -9 -9 0 -27 -7 -40 -16 -14 -9 -32 -14
-40 -10 -9 3 -26 -1 -39 -9 -12 -8 -47 -22 -77 -30 -30 -9 -63 -20 -74 -25
-49 -24 -142 -50 -215 -61 -44 -7 -76 -16 -70 -19 16 -10 -91 -41 -120 -35
-21 5 -22 4 -5 -3 38 -17 -53 -34 -207 -39 l-148 -5 17 33 c9 19 33 52 53 75
21 22 46 54 56 70 28 46 56 65 74 51 13 -10 13 -10 2 5 -12 15 -11 21 6 45 11
15 31 48 45 73 17 30 32 45 44 44 12 -1 20 6 20 19 2 19 2 19 -12 1 -8 -11
-15 -14 -15 -8 0 17 47 57 59 50 7 -5 8 -1 4 10 -6 16 -4 15 19 -2 17 -13 22
-21 14 -26 -7 -5 -5 -8 6 -8 9 0 20 5 23 10 3 6 14 10 23 10 11 0 13 -3 6 -10
-15 -15 -5 -70 12 -70 9 0 14 11 14 30 0 17 5 30 10 30 6 0 9 3 8 8 -1 4 3 17
10 29 9 16 24 23 55 26 23 2 49 4 58 5 9 1 19 -1 23 -5z m-2023 -97 c-7 -8 -8
-17 -3 -20 14 -9 22 -48 9 -43 -17 5 -29 60 -14 69 18 12 21 10 8 -6z m-51
-64 c0 -35 -4 -41 -62 -79 -35 -23 -88 -64 -118 -92 -30 -28 -60 -50 -67 -51
-6 0 -19 -7 -27 -16 -15 -14 -17 -14 -22 0 -3 9 -12 16 -20 16 -8 0 -14 7 -14
15 0 8 6 15 13 15 8 0 7 4 -3 10 -11 7 -11 10 -2 10 14 0 92 78 92 93 0 5 6 7
14 4 10 -4 12 0 9 14 -3 11 0 19 7 19 6 0 25 9 40 20 16 11 35 18 43 14 8 -3
17 1 20 9 3 9 19 18 36 22 17 4 33 11 37 16 11 18 24 -3 24 -39z m2806 -56
c-1 -30 -4 -49 -8 -43 -7 11 -11 4 -10 -13 0 -3 -52 -27 -116 -52 -119 -48
-216 -70 -330 -77 -13 0 -21 -5 -18 -10 8 -12 -249 -54 -394 -64 l-75 -5 75
19 c41 11 84 24 95 29 47 23 150 51 195 53 26 1 44 5 38 8 -13 8 -7 12 82 39
41 13 81 27 87 33 7 5 25 7 40 4 16 -4 22 -4 16 -1 -26 11 -12 24 25 24 21 0
46 6 57 14 11 7 44 21 72 30 29 10 56 22 59 28 9 14 64 37 90 38 18 0 20 -6
20 -54z m-2614 -167 l3 -71 -57 5 c-92 8 -98 18 -39 60 28 20 56 46 63 57 21
33 26 24 30 -51z m2638 44 c-1 -24 -9 -32 -62 -58 -34 -16 -66 -35 -72 -40 -6
-6 -36 -23 -66 -39 -110 -59 -103 -40 -101 -248 l1 -183 -42 -26 c-24 -15 -54
-32 -68 -39 -14 -7 -27 -16 -30 -20 -4 -6 -84 -45 -130 -64 -8 -3 -58 -29
-110 -56 -52 -28 -102 -50 -111 -50 -8 0 -19 -4 -25 -9 -11 -11 -163 -74 -219
-90 -22 -7 -62 -23 -90 -35 -27 -13 -77 -31 -110 -41 -33 -10 -74 -23 -90 -31
-17 -7 -55 -16 -85 -20 -30 -4 -62 -8 -69 -9 -8 -1 -17 -7 -19 -14 -3 -8 4
-10 20 -6 12 3 37 7 53 9 17 2 37 6 45 8 8 3 40 11 70 18 30 7 60 16 65 20 6
4 24 10 40 14 17 4 44 14 60 21 17 7 73 27 125 45 52 17 135 51 186 76 50 25
95 44 100 42 11 -3 172 78 195 98 23 21 60 19 52 -3 -6 -15 -5 -16 9 -3 9 9
12 18 6 21 -10 7 25 35 77 62 17 9 42 27 57 41 32 31 37 32 37 9 0 -10 3 -54
6 -98 4 -44 7 -207 8 -362 l2 -282 -35 -15 c-19 -8 -61 -20 -92 -26 -32 -6
-60 -16 -63 -21 -4 -5 -14 -9 -23 -9 -9 -1 -35 -9 -57 -20 -22 -11 -48 -19
-58 -20 -22 0 -57 -18 -57 -28 0 -4 11 -12 25 -19 14 -6 22 -7 19 -2 -7 12
101 61 138 63 14 0 24 4 22 7 -5 9 34 25 91 39 28 7 56 14 63 16 7 2 10 0 7
-5 -3 -5 -1 -12 4 -16 5 -3 8 -14 6 -24 -2 -13 7 -21 33 -31 33 -12 35 -14 17
-21 -14 -6 -10 -7 12 -3 34 6 63 -4 45 -15 -5 -3 35 -7 91 -8 71 -1 102 -5
108 -15 12 -18 11 -61 -1 -53 -5 3 -10 -1 -10 -10 0 -9 5 -13 10 -10 6 3 10 1
10 -4 0 -6 -4 -11 -9 -11 -5 0 -10 -75 -10 -166 -1 -92 -4 -171 -7 -175 -3 -5
-20 -9 -37 -9 -18 0 -61 -9 -97 -20 -36 -11 -90 -20 -120 -20 -31 0 -60 -4
-66 -10 -5 -5 -50 -11 -99 -13 -54 -2 -99 -9 -113 -18 -16 -10 -27 -11 -39 -4
-20 12 -83 5 -86 -10 -1 -5 38 -11 88 -13 50 -2 102 -5 118 -6 34 -1 42 -23
28 -73 -12 -44 -14 -152 -3 -170 4 -6 23 -13 42 -16 33 -4 33 -4 -8 -5 -38 -2
-42 -4 -38 -24 12 -59 17 -208 7 -208 -6 0 -11 -18 -11 -40 l0 -40 40 0 40 0
0 -59 c0 -33 3 -62 8 -64 4 -3 7 85 7 194 1 129 -3 200 -10 201 -5 0 10 4 35
7 25 4 48 5 52 4 11 -5 9 -593 -2 -593 -6 0 -10 5 -10 12 0 6 -2 9 -5 6 -3 -3
3 -26 14 -51 17 -39 24 -46 53 -50 29 -3 28 -4 -9 -5 -27 -1 -43 2 -43 10 0
27 -12 -4 -16 -44 -3 -23 -9 -44 -12 -46 -4 -1 -6 -36 -4 -78 3 -71 2 -75 -17
-69 -14 4 -21 0 -26 -15 -4 -12 -4 -24 -1 -27 3 -4 6 1 6 10 0 9 5 17 10 17 6
0 10 -18 10 -39 0 -26 5 -41 16 -45 10 -4 15 -17 14 -38 -1 -18 -2 -70 -1
-115 l1 -83 28 0 c15 0 34 -5 42 -11 11 -8 4 -9 -27 -7 -25 2 -43 -1 -43 -7 0
-13 124 -17 153 -5 18 7 13 9 -23 10 -46 2 -46 4 3 14 l28 7 -3 204 c-2 113 0
205 4 205 4 0 3 14 -2 30 -5 18 -5 30 1 30 5 0 9 5 9 10 0 6 -6 10 -14 10 -14
0 -28 34 -18 44 3 3 23 6 45 6 30 0 40 -4 44 -20 3 -11 8 -20 12 -20 3 0 6
-24 7 -52 1 -153 7 -209 20 -204 7 3 16 1 19 -5 4 -5 -1 -12 -9 -15 -22 -8
-20 -26 4 -47 20 -17 28 -57 11 -57 -6 0 -11 -21 -13 -47 -2 -40 -6 -47 -21
-45 -16 3 -17 -4 -11 -90 3 -51 12 -131 19 -178 11 -72 13 -78 15 -40 2 42 3
43 10 15 6 -26 7 -23 7 17 -1 26 -7 50 -13 52 -7 3 -9 16 -6 31 3 17 9 24 18
21 10 -4 14 3 13 27 0 18 -3 26 -6 20 -2 -7 -9 -13 -14 -13 -12 0 -12 107 1
115 6 3 10 -4 10 -17 0 -13 3 -34 7 -46 4 -18 8 -20 14 -10 6 8 9 -6 10 -37 0
-27 2 -149 5 -270 2 -121 6 -242 9 -268 4 -30 2 -46 -4 -43 -5 3 -11 0 -14 -6
-4 -14 -6 3 -9 139 -2 50 -6 95 -10 99 -5 4 -8 1 -9 -7 -1 -8 -2 -23 -3 -34 0
-11 -7 -19 -14 -17 -8 1 -16 -7 -19 -18 -8 -30 -24 -20 -39 23 -12 34 -12 37
7 37 10 0 19 5 19 10 0 12 -27 13 -34 1 -3 -5 -21 -12 -39 -15 -19 -3 -42 -13
-53 -21 -19 -14 -19 -14 0 -15 11 0 27 7 37 16 25 23 49 11 49 -25 0 -34 -30
-61 -68 -61 -13 0 -33 -5 -44 -11 -16 -9 -19 -8 -16 3 3 7 15 18 27 24 34 17
48 34 29 34 -8 0 -21 -6 -27 -13 -6 -8 -30 -24 -55 -36 -39 -20 -43 -27 -44
-59 -2 -74 -2 -76 -15 -63 -8 8 -17 4 -34 -16 -17 -21 -25 -25 -31 -15 -7 10
-13 7 -26 -12 -9 -14 -26 -26 -37 -26 -12 0 -38 -13 -59 -30 -21 -16 -47 -30
-58 -30 -16 0 -20 -9 -26 -60 -5 -42 -11 -60 -21 -60 -14 0 -19 -14 -28 -70
-3 -15 -5 -7 -7 20 l-2 45 -13 -54 c-8 -30 -11 -59 -9 -63 10 -16 -5 -7 -35
21 -40 38 -72 46 -78 21 -4 -15 -9 -17 -22 -10 -10 5 -27 7 -39 4 -19 -6 -20
-8 -7 -45 9 -23 10 -41 4 -44 -5 -4 -9 3 -9 14 0 19 -2 20 -20 9 -17 -11 -17
-14 -4 -18 11 -4 4 -12 -25 -28 -33 -19 -41 -29 -41 -53 0 -19 -9 -37 -25 -51
-14 -12 -23 -28 -21 -35 3 -7 -1 -13 -9 -13 -13 0 -15 26 -15 163 -1 89 -3
205 -6 257 -3 52 -3 141 1 198 l7 102 65 0 64 0 -2 108 c-1 59 2 124 6 144 7
34 5 39 -19 48 -14 5 -26 14 -26 20 0 11 33 14 44 3 11 -11 88 -3 100 10 7 8
11 70 10 177 -1 164 -7 210 -25 210 -13 0 -11 -18 4 -23 6 -2 -15 -7 -48 -11
-33 -4 -70 -10 -82 -13 -23 -5 -23 -4 -25 113 l-2 119 -6 -120 -6 -120 -3 110
c-1 61 -9 151 -16 200 l-12 90 -2 -82 c0 -50 3 -83 9 -83 6 0 9 -47 9 -122 -3
-186 -16 -67 -25 220 l-7 233 31 11 c18 7 32 15 32 19 0 6 68 24 81 21 13 -2
41 37 34 47 -3 6 -27 11 -53 12 -26 0 -81 6 -121 13 -110 20 -115 29 -108 181
6 125 23 200 48 216 8 5 50 6 94 3 64 -5 84 -3 100 10 19 14 17 15 -30 16 -36
0 -46 3 -35 10 13 9 13 11 0 20 -10 6 -11 10 -2 10 6 0 12 7 12 15 0 8 7 15
16 15 14 0 14 3 4 15 -10 13 -9 15 9 15 11 0 21 -6 21 -12 0 -10 3 -9 9 1 5 7
17 11 27 8 46 -14 124 -18 124 -7 0 6 -4 8 -10 5 -5 -3 -10 -1 -10 5 0 7 -7
10 -15 6 -11 -4 -15 2 -15 24 0 24 3 28 17 23 15 -6 16 -5 3 9 -9 9 -17 12
-19 6 -2 -6 -6 -6 -11 2 -5 8 -9 7 -13 -5 -4 -9 -3 -14 2 -11 5 3 9 -6 9 -20
0 -24 -3 -25 -37 -19 -70 12 -66 5 -61 112 l5 98 60 4 60 5 -60 6 -60 7 78 1
c43 1 77 6 77 12 0 9 -35 11 -242 14 l-33 1 -5 -113 c-3 -70 -1 -114 5 -116 6
-3 1 -5 -10 -5 -19 -1 -20 4 -17 119 l3 120 -50 0 c-28 0 -54 0 -57 -1 -4 0
-11 5 -16 13 -5 8 -7 -8 -3 -42 5 -59 -2 -120 -15 -120 -4 0 -12 66 -16 148
-7 116 -10 132 -12 75 l-3 -73 -86 3 -87 2 -18 -65 c-10 -36 -15 -75 -13 -87
4 -16 1 -23 -10 -23 -11 0 -14 10 -11 43 2 23 7 54 11 70 6 21 4 27 -9 27 -24
0 -19 18 7 22 44 6 16 23 -44 26 -34 2 -71 9 -83 16 -33 21 -115 27 -125 9 -7
-13 -10 -12 -25 2 -22 22 -183 34 -170 13 6 -11 5 -11 -8 0 -8 7 -24 10 -34 6
-14 -4 -15 -3 -5 4 8 6 9 12 3 16 -7 4 -11 117 -11 312 -1 183 -6 314 -12 325
-5 11 -21 19 -34 19 l-25 0 1 151 c1 83 4 176 8 206 9 61 -1 73 -58 73 -17 0
-50 9 -74 19 -41 19 -176 35 -393 47 -86 5 -92 4 -97 -15 -3 -12 -11 -21 -17
-21 -10 0 -10 4 0 15 7 9 10 18 8 21 -7 7 -170 30 -270 39 -75 7 -78 7 -78
-14 0 -11 -4 -21 -9 -21 -6 0 -6 -12 -1 -30 5 -19 5 -32 -2 -36 -6 -4 -5 -10
3 -15 8 -5 10 -9 4 -9 -6 0 -9 -23 -7 -55 3 -37 0 -55 -8 -55 -8 0 -9 10 -5
29 5 23 0 36 -25 65 -23 25 -28 36 -17 36 9 0 18 4 21 9 4 5 -3 7 -14 4 -11
-3 -23 -9 -26 -14 -7 -12 -34 -12 -34 0 0 5 17 16 38 24 20 9 30 16 22 17 -11
0 -10 3 4 11 15 9 16 13 5 20 -27 17 -69 10 -80 -13 -8 -19 -9 -17 -4 12 3 19
12 40 20 46 8 6 12 13 10 16 -3 3 13 11 35 18 42 14 45 17 31 38 -6 11 -16 9
-46 -8 -21 -12 -46 -31 -56 -43 -25 -30 -24 -17 3 33 26 49 17 73 -28 77 -19
1 -24 -1 -15 -6 19 -12 8 -52 -23 -82 -13 -13 -26 -35 -29 -49 -2 -14 -5 5 -6
41 -1 74 -3 72 85 125 l57 34 34 -20 c41 -24 57 -25 113 -5 70 25 116 94 161
241 11 38 33 59 50 48 7 -4 9 -3 6 3 -3 5 7 24 23 42 17 18 30 35 30 37 0 9
28 34 37 34 4 0 31 -17 58 -38 54 -40 248 -139 305 -154 80 -22 257 -38 360
-32 58 4 126 7 153 8 26 0 42 3 36 5 -16 5 101 52 137 54 18 1 30 4 29 8 -2 3
17 11 43 18 113 31 276 84 326 106 37 16 38 16 32 -2 -4 -12 0 -11 12 6 12 15
22 20 26 13 5 -8 15 -8 34 -1 15 6 90 12 167 15 194 6 236 13 485 76 63 17
131 33 150 37 19 4 64 19 100 33 116 46 110 45 110 11z m-6140 -28 c47 -8 106
-15 133 -15 42 0 47 -2 48 -22 1 -19 2 -20 6 -4 4 14 11 17 31 13 15 -3 64
-11 110 -18 l82 -12 0 -288 c0 -158 -4 -290 -8 -293 -5 -3 -82 6 -173 19 -90
13 -203 29 -251 35 l-88 12 0 294 c0 229 3 294 13 294 6 0 50 -7 97 -15z
m3537 -57 c-2 -13 -4 -5 -4 17 -1 22 1 32 4 23 2 -10 2 -28 0 -40z m-545 10
c-4 -16 -2 -19 9 -13 12 8 12 6 0 -8 -17 -22 -16 -22 -19 13 -1 17 2 30 7 30
5 0 7 -10 3 -22z m248 18 c0 -2 -7 -7 -16 -10 -8 -3 -12 -2 -9 4 6 10 25 14
25 6z m-36 -41 c-4 -8 -10 -15 -15 -15 -4 0 -6 7 -3 15 4 8 10 15 15 15 4 0 6
-7 3 -15z m-2494 -32 c251 -34 228 -27 232 -71 2 -20 2 -151 0 -291 l-3 -254
-42 6 c-273 36 -358 48 -384 54 l-23 5 0 295 c0 277 1 295 18 288 9 -3 100
-18 202 -32z m2695 -3 c91 -13 105 -18 105 -36 0 -29 -116 -133 -214 -191 -16
-10 -52 -36 -80 -58 -61 -49 -142 -104 -170 -116 -12 -5 -31 -16 -44 -25 l-22
-16 4 74 c3 72 17 118 35 118 5 0 36 26 68 58 114 109 225 202 241 202 4 0 39
-5 77 -10z m-277 -14 c-7 -8 -15 -12 -17 -11 -5 6 10 25 20 25 5 0 4 -6 -3
-14z m3028 -38 c1 -24 4 -234 8 -468 4 -234 4 -452 0 -485 l-6 -60 -62 -28
c-33 -15 -67 -27 -73 -27 -7 0 -13 -4 -13 -10 0 -5 -7 -10 -15 -10 -29 0 -14
17 36 39 37 17 47 26 38 32 -8 5 -18 9 -24 9 -5 0 -3 -5 5 -10 13 -9 13 -10 0
-10 -8 0 -35 -10 -60 -21 -36 -16 -42 -22 -30 -30 13 -9 13 -10 -1 -6 -9 3
-22 0 -28 -6 -8 -8 -11 7 -13 58 -1 39 -1 79 -1 90 1 11 -3 166 -7 344 -10
352 -5 521 15 521 7 0 39 18 73 39 61 40 72 42 72 10 0 -22 13 -31 34 -23 11
4 16 19 16 44 0 33 8 46 30 49 3 1 6 -18 6 -41z m-2445 25 c34 21 218 -6 374
-56 77 -25 153 -48 169 -52 24 -5 27 -8 15 -16 -11 -8 -10 -10 6 -8 44 3 47
-4 5 -12 -113 -20 -371 -3 -414 27 -11 8 -28 14 -37 14 -32 0 -159 85 -159
106 0 5 5 3 11 -3 9 -9 16 -9 30 0z m949 -12 c0 -24 -105 -92 -128 -83 -10 3
-13 1 -8 -6 10 -16 -7 -15 -23 1 -10 10 -12 9 -9 -3 2 -12 -9 -15 -62 -15 -74
0 -174 18 -195 35 -7 6 -56 26 -107 45 l-93 33 313 1 c171 0 312 -3 312 -8z
m285 -7 c-27 -9 -54 -19 -60 -24 -19 -14 -165 -60 -199 -63 -19 -1 -32 -5 -30
-8 2 -4 -18 -12 -44 -18 -26 -7 -71 -21 -100 -32 -79 -29 -86 -23 -14 11 35
17 69 27 74 23 6 -3 8 -1 5 4 -4 6 5 15 21 21 15 5 46 28 70 52 l42 42 70 -4
c39 -2 70 -1 70 2 0 3 33 6 73 7 l72 2 -50 -15z m-3906 -195 c1 -47 -2 -154
-6 -237 -5 -123 -9 -149 -20 -145 -12 5 -14 46 -11 247 3 228 12 307 29 246 4
-14 7 -64 8 -111z m3341 52 c-57 -33 -301 -48 -375 -23 -23 8 -14 9 45 5 41
-2 125 2 185 10 138 18 165 19 145 8z m-3263 -53 c-2 -13 -4 -5 -4 17 -1 22 1
32 4 23 2 -10 2 -28 0 -40z m2261 -28 c-24 -77 -64 -123 -125 -146 -37 -14
-47 -15 -68 -4 -31 17 -32 36 -2 51 12 7 24 15 27 18 18 23 181 150 187 147 1
-1 -8 -30 -19 -66z m1046 52 c2 -4 -3 -8 -12 -9 -9 -1 -35 -4 -57 -7 l-40 -6
40 14 c47 17 62 19 69 8z m-3307 -74 c-3 -8 -6 -5 -6 6 -1 11 2 17 5 13 3 -3
4 -12 1 -19z m-442 -388 c13 -6 15 -9 5 -9 -8 0 -22 4 -30 9 -18 12 -2 12 25
0z m3022 -37 c-3 -10 -5 -2 -5 17 0 19 2 27 5 18 2 -10 2 -26 0 -35z m-2778
18 c12 -7 13 -34 7 -148 -4 -76 -7 -150 -6 -165 l0 -27 -72 5 c-40 3 -80 8
-88 11 -8 4 -21 5 -27 4 -7 -1 -13 3 -13 9 0 10 13 14 37 11 12 -2 11 5 -3 47
-8 21 -7 240 1 253 8 12 145 12 164 0z m112 -68 c2 -87 -2 -208 -7 -226 -3 -9
-10 -15 -15 -12 -18 11 -6 285 12 285 5 0 9 -21 10 -47z m2486 -30 c-3 -10 -5
-4 -5 12 0 17 2 24 5 18 2 -7 2 -21 0 -30z m-348 2 c10 -10 12 -18 5 -25 -6
-6 -19 -1 -37 16 -24 22 -29 23 -42 10 -8 -8 -15 -23 -14 -33 0 -15 2 -14 11
5 6 12 14 22 18 22 13 0 20 -43 9 -56 -10 -13 3 -47 27 -69 13 -12 7 -165 -7
-165 -5 0 -6 6 -3 14 3 8 -4 32 -15 55 -24 46 -25 51 -11 51 6 0 10 -8 11 -17
0 -15 2 -15 9 2 12 27 12 43 0 25 -7 -12 -10 -12 -10 -1 0 8 -6 11 -16 7 -12
-5 -14 -1 -9 17 5 17 4 19 -4 7 -10 -13 -12 -13 -21 0 -14 20 -8 45 10 45 8 0
16 8 18 18 2 9 -1 17 -7 17 -6 0 -11 -5 -11 -10 0 -6 -6 -5 -14 2 -17 16 -13
39 11 68 20 24 66 21 92 -5z m18 -157 c-3 -8 -6 -5 -6 6 -1 11 2 17 5 13 3 -3
4 -12 1 -19z m2763 -313 c-33 -19 -50 -18 -26 0 11 8 27 15 35 15 10 -1 7 -6
-9 -15z m-4445 -282 c-10 -91 -15 -92 -15 -5 0 45 4 72 11 72 7 0 8 -22 4 -67z
m2453 -168 c-3 -70 -9 -130 -14 -135 -5 -5 -6 30 -3 88 4 53 7 114 8 135 1 20
4 37 7 37 4 0 5 -56 2 -125z m149 53 c-2 -13 -4 -5 -4 17 -1 22 1 32 4 23 2
-10 2 -28 0 -40z m-537 25 c0 -5 -5 -15 -10 -23 -8 -12 -10 -11 -10 8 0 12 5
22 10 22 6 0 10 -3 10 -7z m2587 -126 c-2 -23 -3 -1 -3 48 0 50 1 68 3 42 2
-26 2 -67 0 -90z m-4664 89 c-3 -19 -3 -46 1 -59 6 -24 9 -25 133 -32 133 -6
274 -30 428 -70 50 -13 128 -31 174 -41 47 -9 119 -27 160 -41 74 -23 248
-117 363 -195 31 -21 61 -38 66 -38 5 0 22 -12 38 -27 16 -16 44 -40 63 -55
19 -16 29 -28 23 -28 -11 0 -11 -18 1 -37 5 -8 3 -13 -3 -13 -7 0 -14 9 -17
20 -9 33 -23 23 -24 -17 l-1 -38 -12 40 c-11 38 -13 40 -58 43 -42 3 -47 1
-50 -20 l-4 -23 -13 26 c-7 14 -29 32 -49 40 -20 8 -40 15 -44 17 -5 2 -8 -1
-8 -7 0 -6 7 -11 15 -11 8 0 15 -4 15 -10 0 -13 -27 -13 -35 0 -4 6 -16 8 -27
4 -17 -5 -19 -3 -13 18 l6 23 -20 -23 -20 -22 -7 22 -7 23 -10 -25 c-8 -19
-11 -21 -14 -9 -5 21 -35 30 -56 17 -10 -5 -24 -5 -36 1 -10 6 -21 7 -25 3 -4
-3 -49 36 -100 88 -140 144 -195 188 -216 175 -6 -4 -9 -1 -8 6 2 7 -5 14 -14
16 -12 3 -15 -1 -11 -16 3 -12 1 -21 -6 -21 -6 0 -11 5 -11 10 0 6 -7 10 -15
10 -8 0 -15 5 -15 10 0 22 -40 -11 -41 -33 -1 -21 -1 -21 -9 3 -4 14 -8 20 -9
15 -1 -6 -11 -12 -23 -12 -13 -1 -27 -9 -33 -16 -11 -15 -44 -15 -79 -1 -16 6
-18 4 -13 -9 7 -19 -3 -23 -19 -7 -6 6 -21 6 -41 1 -23 -7 -37 -5 -53 6 -17
12 -30 13 -60 5 -34 -8 -39 -7 -43 9 -7 26 -36 24 -47 -3 -9 -23 -9 -23 -10 2
-1 38 -13 51 -46 48 -16 -1 -35 1 -41 5 -6 4 -14 0 -17 -9 -5 -12 -14 -15 -34
-10 -46 10 -171 15 -137 5 26 -7 23 -8 -17 -6 -31 1 -49 -2 -53 -10 -2 -7 -9
-13 -16 -13 -6 0 -9 7 -6 15 4 8 2 17 -3 20 -6 4 -10 1 -10 -4 0 -6 -12 -10
-27 -10 -18 1 -21 3 -10 6 9 2 15 9 12 14 -4 5 -22 2 -42 -6 -27 -12 -39 -12
-50 -4 -10 9 -20 9 -39 -2 -20 -10 -27 -11 -33 0 -4 7 -31 14 -60 15 -29 1
-56 8 -60 15 -4 7 -18 13 -29 14 -23 1 -31 16 -9 18 8 0 9 2 0 5 -20 9 -140
-59 -207 -118 -17 -15 -42 -33 -56 -40 -14 -7 -45 -31 -70 -54 -25 -23 -76
-68 -115 -99 -38 -31 -92 -74 -119 -96 -27 -22 -51 -37 -54 -35 -3 3 5 14 17
23 18 14 21 24 16 46 -4 15 -11 27 -16 27 -16 0 -9 39 9 49 16 10 16 10 0 11
-24 0 -23 9 4 37 20 21 20 23 4 17 -14 -5 -17 -4 -12 4 11 18 -2 15 -33 -7
-15 -11 -53 -33 -85 -50 -44 -22 -54 -25 -40 -10 9 10 21 19 27 19 5 0 39 20
76 44 125 82 296 155 481 206 41 11 111 34 155 50 44 17 98 35 120 40 22 5 74
18 115 30 60 16 108 20 240 21 92 1 170 6 177 11 7 6 15 26 19 47 7 44 12 61
18 61 3 0 2 -16 -1 -34z m1860 4 c3 -11 2 -20 -3 -20 -4 0 -10 9 -13 20 -3 11
-2 20 3 20 4 0 10 -9 13 -20z m194 -47 c-3 -10 -5 -4 -5 12 0 17 2 24 5 18 2
-7 2 -21 0 -30z m-227 -3 c0 -5 -2 -10 -4 -10 -3 0 -8 5 -11 10 -3 6 -1 10 4
10 6 0 11 -4 11 -10z m457 -37 c-3 -10 -5 -2 -5 17 0 19 2 27 5 18 2 -10 2
-26 0 -35z m330 25 c-3 -8 -6 -5 -6 6 -1 11 2 17 5 13 3 -3 4 -12 1 -19z m-9
-151 c-1 -56 -7 -102 -13 -102 -11 0 -12 26 -1 145 11 117 19 94 14 -43z
m-778 98 c0 -8 -4 -15 -10 -15 -5 0 -7 7 -4 15 4 8 8 15 10 15 2 0 4 -7 4 -15z
m216 -72 c-11 -11 -17 4 -9 23 7 18 8 18 11 1 2 -10 1 -21 -2 -24z m-256 17
c0 -5 -2 -10 -4 -10 -3 0 -8 5 -11 10 -3 6 -1 10 4 10 6 0 11 -4 11 -10z m-55
-10 c-3 -5 -10 -10 -16 -10 -5 0 -9 5 -9 10 0 6 7 10 16 10 8 0 12 -4 9 -10z
m2897 -15 c-2 -11 -4 -42 -5 -70 -1 -27 -6 -53 -12 -57 -6 -5 -6 -8 3 -8 22 0
13 -17 -15 -28 -29 -11 -45 -13 -98 -12 -16 0 -39 -4 -50 -9 -26 -14 -215 -29
-221 -19 -3 5 -3 21 0 36 4 15 7 44 8 65 1 22 6 36 12 34 6 -2 10 -11 8 -21
-4 -24 16 -20 24 6 4 15 1 25 -12 35 -17 12 -16 13 7 13 34 0 56 -15 35 -23
-29 -11 -17 -27 20 -27 23 0 41 -6 49 -17 14 -18 39 -8 31 12 -3 8 4 15 17 18
12 2 4 5 -18 6 -22 1 -48 8 -59 16 -16 12 -12 13 35 8 33 -3 66 0 84 8 17 7
34 11 39 10 5 -1 3 6 -5 15 -13 16 -11 17 33 11 27 -4 47 -3 47 1 -3 18 3 23
24 20 16 -2 21 -9 19 -23z m-2356 -52 c-11 -11 -17 4 -9 23 7 18 8 18 11 1 2
-10 1 -21 -2 -24z m904 27 c9 -6 10 -10 3 -10 -6 0 -12 -8 -11 -17 0 -21 -19
-159 -33 -226 -5 -27 -9 -70 -9 -97 0 -27 -4 -52 -10 -55 -9 -5 -14 7 -11 27
0 4 3 29 6 55 2 26 9 73 14 103 4 30 9 84 10 120 2 53 5 91 10 108 2 5 17 1
31 -8z m1270 0 c0 -5 -15 -10 -32 -10 -25 0 -29 3 -18 10 20 13 50 13 50 0z
m-2699 -18 c-7 -2 -18 1 -23 6 -8 8 -4 9 13 5 13 -4 18 -8 10 -11z m299 14 c0
-2 -3 -11 -6 -20 -9 -23 -24 -20 -24 4 0 11 7 20 15 20 8 0 15 -2 15 -4z m587
-46 c-2 -22 -7 -43 -12 -47 -4 -5 -5 7 -1 26 3 18 6 40 6 47 0 8 2 14 6 14 3
0 3 -18 1 -40z m-363 -58 c-3 -32 -11 -61 -16 -67 -7 -7 -9 8 -4 45 3 30 6 63
6 73 0 10 5 15 11 12 6 -5 8 -27 3 -63z m1521 58 c3 -5 4 -10 1 -10 -2 0 -12
-3 -20 -6 -12 -5 -15 -2 -10 10 7 18 20 21 29 6z m874 -32 c-1 -24 1 -50 4
-58 3 -8 8 -209 11 -447 l7 -432 -43 -9 c-53 -11 -62 -7 -46 20 7 11 19 30 25
42 9 15 12 70 11 186 l-2 165 -6 -170 c-5 -163 -10 -195 -31 -195 -5 0 -9 123
-9 310 0 297 1 310 19 310 10 0 22 7 25 16 11 28 7 154 -5 154 -12 0 -1 42 14
51 5 4 6 12 3 18 -7 11 11 81 21 81 2 0 4 -19 2 -42z m-2973 23 c-4 -5 -2 -11
3 -13 4 -1 12 -14 16 -28 8 -25 8 -25 -14 -6 -22 20 -29 56 -10 56 5 0 8 -4 5
-9z m753 -53 c-1 -31 -1 -31 -8 -8 -5 14 -6 28 -4 33 9 15 13 6 12 -25z m182
-24 c-2 -10 -6 -90 -7 -178 -2 -87 -6 -161 -9 -164 -3 -3 -5 74 -5 171 0 154
-2 177 -16 177 -8 0 -13 4 -10 8 3 5 15 8 28 7 17 -2 22 -7 19 -21z m-391 6
c0 -5 -5 -10 -11 -10 -5 0 -7 5 -4 10 3 6 8 10 11 10 2 0 4 -4 4 -10z m2318
-48 c-10 -2 -18 -7 -18 -11 0 -5 -12 -6 -27 -3 -26 5 -26 5 8 17 19 6 39 9 44
6 6 -3 2 -7 -7 -9z m-1968 -38 c0 -20 -4 -33 -10 -29 -5 3 -8 16 -6 28 3 12 5
25 5 30 1 4 3 7 6 7 3 0 5 -16 5 -36z m674 -74 c-3 -47 -8 -89 -11 -93 -3 -5
-11 -70 -18 -145 -13 -134 -37 -304 -56 -390 -5 -23 -9 -63 -9 -89 0 -34 -3
-44 -11 -36 -8 8 -8 32 0 84 10 70 21 155 41 329 5 41 14 154 20 250 11 167
22 218 42 188 4 -7 5 -51 2 -98z m-1637 78 c-3 -8 -6 -5 -6 6 -1 11 2 17 5 13
3 -3 4 -12 1 -19z m330 0 c-3 -8 -6 -5 -6 6 -1 11 2 17 5 13 3 -3 4 -12 1 -19z
m277 -43 c-3 -22 -11 -47 -16 -55 -8 -12 -8 -11 -4 3 3 10 6 42 6 70 0 38 3
48 10 37 6 -8 7 -33 4 -55z m978 -31 c-1 -49 -11 -145 -21 -214 l-19 -125 -1
85 c0 47 5 119 11 160 7 41 12 101 12 133 1 33 5 56 11 54 6 -2 9 -40 7 -93z
m-1545 49 c-3 -10 -5 -4 -5 12 0 17 2 24 5 18 2 -7 2 -21 0 -30z m2841 2 c0
-14 -3 -25 -7 -25 -4 0 -8 11 -9 25 -1 14 2 25 7 25 5 0 9 -11 9 -25z m67 14
c9 -14 6 -16 -30 -24 -23 -5 -26 -4 -15 4 13 10 13 11 0 12 -10 0 -8 3 5 9 27
12 33 12 40 -1z m-315 -18 c0 -11 -4 -23 -10 -26 -6 -4 -10 5 -10 19 0 14 5
26 10 26 6 0 10 -9 10 -19z m118 -25 c1 -37 -2 -45 -21 -50 -34 -9 -55 -6 -30
4 20 8 22 15 18 50 -5 34 -3 40 14 40 15 0 19 -8 19 -44z m218 0 c-9 -38 -15
-45 -39 -50 -48 -10 -67 -7 -67 9 0 8 6 15 14 15 7 0 19 7 26 15 7 8 21 15 32
15 11 0 22 9 25 20 11 41 19 18 9 -24z m-869 28 c-3 -3 -12 -4 -19 -1 -8 3 -5
6 6 6 11 1 17 -2 13 -5z m718 -14 c3 -5 1 -10 -4 -10 -6 0 -11 5 -11 10 0 6 2
10 4 10 3 0 8 -4 11 -10z m-2815 -41 c0 -5 -4 -9 -10 -9 -5 0 -10 7 -10 16 0
8 5 12 10 9 6 -3 10 -10 10 -16z m-1844 -61 c-19 -27 -20 -22 -4 23 8 23 13
28 16 17 2 -10 -4 -28 -12 -40z m1881 30 c-3 -8 -6 -5 -6 6 -1 11 2 17 5 13 3
-3 4 -12 1 -19z m1309 -39 c-3 -34 -7 -71 -7 -83 -1 -12 -4 -5 -8 14 -9 47 -2
130 11 130 7 0 9 -21 4 -61z m-1348 -40 c-4 -93 -18 -88 -18 7 0 51 3 73 11
69 6 -4 9 -35 7 -76z m2841 72 c9 -6 10 -11 2 -15 -6 -4 -15 -5 -20 -2 -5 4
-12 0 -14 -6 -3 -7 -6 -3 -6 10 -1 23 14 28 38 13z m-3514 -21 c3 -5 2 -10 -4
-10 -5 0 -13 5 -16 10 -3 6 -2 10 4 10 5 0 13 -4 16 -10z m712 -12 c-3 -8 -6
-5 -6 6 -1 11 2 17 5 13 3 -3 4 -12 1 -19z m2598 12 c-3 -5 -10 -10 -16 -10
-5 0 -9 5 -9 10 0 6 7 10 16 10 8 0 12 -4 9 -10z m-2722 -92 c11 -10 16 -18
10 -18 -12 0 -73 59 -73 71 0 5 10 -1 22 -13 12 -13 31 -31 41 -40z m1479 0
c-9 -9 -12 -7 -12 12 0 19 3 21 12 12 9 -9 9 -15 0 -24z m1249 -18 c5 0 9 -18
9 -40 0 -22 -4 -40 -10 -40 -5 0 -10 13 -10 29 0 16 -2 41 -4 57 -2 16 -1 21
1 12 2 -10 9 -18 14 -18z m-2595 -49 c0 -26 4 -53 8 -60 5 -7 5 -15 1 -19 -3
-3 -10 0 -15 8 -11 18 -13 137 -2 126 4 -4 7 -29 8 -55z m-279 -3 c-2 -13 -4
-5 -4 17 -1 22 1 32 4 23 2 -10 2 -28 0 -40z m1265 3 c2 -22 0 -37 -4 -35 -8
5 -11 74 -4 74 2 0 6 -18 8 -39z m186 -83 l-2 -123 -5 110 c-6 103 -4 135 5
135 2 0 3 -55 2 -122z m582 112 c0 -5 -4 -10 -10 -10 -5 0 -10 5 -10 10 0 6 5
10 10 10 6 0 10 -4 10 -10z m-1794 -41 c13 -25 13 -28 -1 -23 -8 4 -15 11 -15
16 0 6 -8 4 -17 -3 -15 -12 -16 -12 -10 5 4 10 3 24 -3 31 -9 11 -6 12 10 8
11 -3 27 -18 36 -34z m825 -150 c-6 -64 -11 -152 -11 -195 0 -42 -3 -75 -6
-72 -7 7 -6 212 1 251 3 16 7 63 9 105 5 94 8 108 13 63 3 -19 0 -87 -6 -152z
m1044 64 c-2 -65 -4 -137 -4 -160 0 -23 -6 -45 -12 -49 -9 -5 -10 -2 -6 9 4
11 1 17 -8 17 -8 0 -14 6 -12 13 1 6 -7 12 -18 12 -17 0 -20 -7 -21 -50 -1
-27 -3 -61 -3 -75 l-2 -25 -15 28 c-14 27 -34 37 -34 17 0 -5 -7 -10 -16 -10
-12 0 -15 6 -10 23 3 12 6 31 6 41 0 18 1 18 20 1 20 -18 20 -17 20 8 0 15 -6
27 -12 27 -9 0 -9 3 1 9 11 7 14 38 15 130 1 84 5 124 14 133 11 11 12 10 7
-4 -5 -13 -2 -18 10 -18 9 0 14 -4 11 -9 -4 -5 3 -7 14 -4 13 3 20 14 20 29 0
17 6 24 20 24 18 0 19 -6 15 -117z m-1349 -48 c-5 -150 -25 -207 -26 -74 0
111 10 210 22 203 4 -3 6 -61 4 -129z m-556 95 c0 -5 -2 -10 -4 -10 -3 0 -8 5
-11 10 -3 6 -1 10 4 10 6 0 11 -4 11 -10z m0 -24 c0 -3 -4 -8 -10 -11 -5 -3
-10 -1 -10 4 0 6 5 11 10 11 6 0 10 -2 10 -4z m277 -162 c-4 -7 28 -48 83
-104 49 -52 88 -95 86 -97 -2 -2 -50 41 -107 97 -62 60 -100 104 -93 108 6 4
12 27 13 52 3 48 8 88 12 105 1 6 5 -26 8 -70 3 -44 3 -85 -2 -91z m-137 105
c0 -6 -4 -7 -10 -4 -5 3 -10 11 -10 16 0 6 5 7 10 4 6 -3 10 -11 10 -16z
m1425 -97 c-10 -70 -18 -41 -9 35 6 43 10 57 12 39 2 -17 1 -50 -3 -74z m207
36 c-6 -6 -7 0 -4 19 5 21 7 23 10 9 2 -10 0 -22 -6 -28z m-1114 -78 c-1 -89
-9 -133 -22 -120 -9 10 -10 38 -2 128 4 50 11 92 16 92 5 0 8 -45 8 -100z
m119 -32 c-2 -13 -4 -3 -4 22 0 25 2 35 4 23 2 -13 2 -33 0 -45z m-2402 -137
l-7 -148 63 -7 c112 -11 189 -29 189 -43 0 -7 5 -13 11 -13 5 0 8 4 5 9 -10
15 17 28 89 40 39 7 122 21 185 32 183 32 233 37 440 43 107 4 240 9 294 12
l99 6 -7 -1356 -7 -1356 68 -1 c37 0 109 1 158 2 144 5 174 4 290 -4 61 -4
202 -12 314 -17 290 -13 284 -18 -54 -51 -121 -11 -242 -25 -269 -30 -27 -5
-75 -9 -108 -9 -87 0 -768 -63 -1033 -95 -66 -8 -159 -15 -207 -15 l-88 0 -1
-77 c-2 -111 -7 -67 -18 157 -6 107 -19 282 -31 389 -22 211 -37 256 -92 289
-24 14 -35 15 -85 4 -32 -7 -59 -16 -61 -21 -2 -5 -15 -3 -30 5 -15 8 -34 14
-42 14 -12 0 -13 2 -1 9 35 22 -89 -5 -142 -31 -73 -36 -86 -31 -17 6 41 22
50 32 50 55 0 15 5 32 12 39 9 9 9 12 0 12 -7 0 -12 5 -12 11 0 5 5 7 11 4 7
-5 10 13 8 52 -1 57 -17 113 -31 113 -5 0 -8 74 -8 165 0 134 -3 165 -14 165
-10 0 -15 -23 -20 -87 -14 -192 -18 -219 -35 -242 l-18 -23 -22 43 c-12 24
-35 67 -51 94 -16 28 -30 60 -30 72 0 12 -3 29 -6 38 -5 13 -9 14 -15 4 -6
-10 -12 -4 -22 19 -7 18 -16 29 -20 25 -4 -3 -7 -2 -7 3 0 12 21 34 31 34 4 0
9 -12 11 -27 2 -16 5 1 6 37 0 35 -2 60 -6 55 -4 -6 -19 -10 -34 -10 -25 -1
-28 3 -28 35 0 23 8 44 20 58 21 22 40 29 40 14 0 -5 8 -19 19 -31 16 -18 20
-19 31 -6 7 8 18 15 25 15 7 0 24 15 38 33 13 17 36 45 50 61 27 31 41 66 26
66 -5 0 -9 5 -9 11 0 5 5 7 11 3 14 -8 28 14 30 46 0 23 1 23 8 5 5 -11 7 -38
5 -60 -3 -36 -2 -38 10 -22 13 17 15 16 36 -13 28 -39 43 -30 24 16 -14 34
-14 37 5 50 48 34 35 150 -33 279 -24 47 -32 55 -34 37 -6 -42 -20 -22 -17 26
2 26 8 191 14 367 7 176 18 417 26 535 8 118 15 218 15 223 0 4 3 7 6 7 4 0 3
-67 -1 -149z m3185 114 c0 -8 -4 -15 -10 -15 -5 0 -10 7 -10 15 0 8 5 15 10
15 6 0 10 -7 10 -15z m-40 -10 c0 -8 -4 -15 -10 -15 -5 0 -10 7 -10 15 0 8 5
15 10 15 6 0 10 -7 10 -15z m-2953 -52 c-3 -10 -5 -4 -5 12 0 17 2 24 5 18 2
-7 2 -21 0 -30z m3297 -50 c-3 -62 -7 -88 -16 -88 -9 0 -12 14 -9 44 2 28 -2
47 -10 52 -11 6 -10 12 4 27 9 10 17 26 17 35 0 9 4 17 9 17 5 0 7 -39 5 -87z
m-127 -40 c-2 -21 -4 -6 -4 32 0 39 2 55 4 38 2 -18 2 -50 0 -70z m53 72 c0
-14 -4 -25 -10 -25 -11 0 -14 33 -3 43 11 11 13 8 13 -18z m220 -308 c0 -154
-2 -278 -4 -276 -2 2 -6 95 -7 206 -2 110 -7 199 -11 196 -5 -2 -8 32 -8 76 0
43 -3 88 -7 98 -6 17 -5 17 15 -1 22 -19 22 -24 22 -299z m-1588 266 c15 -15
28 -31 28 -37 0 -5 -14 3 -30 19 -17 16 -43 30 -58 31 -15 1 -19 0 -9 -3 17
-4 24 -23 9 -23 -4 0 -8 -9 -9 -20 -1 -12 4 -20 13 -20 11 0 13 6 9 19 -10 33
11 32 41 -2 16 -17 20 -24 8 -14 -26 22 -41 22 -23 0 12 -15 12 -16 -3 -10
-11 4 -21 0 -27 -11 -6 -9 -11 -12 -11 -6 0 7 -12 15 -26 18 -25 7 -26 8 -8
21 19 14 19 14 0 15 -15 0 -16 3 -7 14 22 26 -16 26 -106 0 -48 -14 -93 -30
-100 -36 -8 -6 -16 -8 -19 -5 -9 8 43 39 100 59 30 10 81 17 125 18 68 0 78
-3 103 -27z m231 -3 c-3 -11 -9 -17 -14 -14 -14 8 -10 34 5 34 9 0 12 -7 9
-20z m-4363 -457 c0 -251 -3 -453 -6 -450 -10 10 -12 907 -2 907 4 0 8 -206 8
-457z m5489 297 c-5 -63 -13 -137 -19 -163 -13 -63 -13 -374 0 -382 15 -9 12
-35 -4 -35 -30 0 -47 79 -42 195 3 61 7 124 10 140 3 17 10 82 17 145 7 63 13
122 15 130 1 8 6 42 10 75 13 102 22 25 13 -105z m-699 146 c0 -3 -4 -8 -10
-11 -5 -3 -10 -1 -10 4 0 6 5 11 10 11 6 0 10 -2 10 -4z m287 -33 c-3 -10 -5
-4 -5 12 0 17 2 24 5 18 2 -7 2 -21 0 -30z m-1130 21 c-3 -3 -12 -4 -19 -1 -8
3 -5 6 6 6 11 1 17 -2 13 -5z m2733 -4 c0 -5 -2 -10 -4 -10 -3 0 -8 5 -11 10
-3 6 -1 10 4 10 6 0 11 -4 11 -10z m-5325 -24 c88 -9 221 -20 295 -25 74 -5
193 -17 264 -27 l129 -18 -6 -156 c-5 -139 -34 -624 -40 -659 -1 -9 -15 -2
-39 22 -56 54 -74 60 -169 60 -134 -1 -173 -14 -248 -84 -44 -41 -61 -63 -52
-68 9 -6 9 -15 2 -35 -6 -14 -13 -46 -15 -71 -4 -42 -28 -87 -61 -115 -17 -14
-21 -70 -5 -70 6 0 10 -7 10 -15 0 -11 -18 -6 -71 20 -70 33 -99 36 -99 9 0
-7 -6 -17 -13 -21 -7 -4 -27 -28 -44 -53 -17 -25 -40 -53 -52 -62 -11 -9 -27
-42 -36 -73 l-17 -56 -91 3 -90 3 -3 40 c-4 68 -17 680 -19 883 -1 105 -4 195
-8 198 -3 3 -12 -3 -19 -15 -7 -12 -23 -21 -35 -21 -18 0 -23 -6 -24 -27 l-1
-28 -8 25 c-4 14 -8 62 -9 108 -1 47 -5 82 -11 82 -18 0 -10 39 10 50 35 19
23 33 -22 27 -24 -3 -37 -4 -30 -1 6 3 12 22 12 41 0 27 -3 34 -15 29 -11 -4
-15 1 -15 17 0 17 2 19 9 8 8 -12 11 -9 17 14 8 31 -5 60 -27 60 -11 0 -14
-31 -14 -165 0 -91 -2 -147 -4 -125 l-5 40 -6 -40 c-4 -22 -7 37 -8 132 l-2
172 43 4 c85 9 487 -1 642 -17z m2542 18 c-3 -3 -12 -4 -19 -1 -8 3 -5 6 6 6
11 1 17 -2 13 -5z m2794 -17 c-10 -9 -11 -8 -5 6 3 10 9 15 12 12 3 -3 0 -11
-7 -18z m-6097 -74 c-4 -49 -8 -90 -10 -92 -2 -2 -4 32 -4 77 0 78 -1 82 -22
83 -22 1 -22 1 2 9 14 4 28 8 32 9 4 1 5 -38 2 -86z m3361 78 c-11 -5 -33 -11
-50 -15 -26 -6 -28 -6 -12 6 9 7 32 14 50 15 25 1 27 0 12 -6z m-3465 -26 c-7
-9 -15 -13 -17 -11 -7 7 7 26 19 26 6 0 6 -6 -2 -15z m6702 -25 c-2 -22 -8
-40 -13 -40 -10 0 -12 63 -2 73 14 15 18 5 15 -33z m-3685 24 c-3 -3 -12 -4
-19 -1 -8 3 -5 6 6 6 11 1 17 -2 13 -5z m1823 -278 c0 -151 -4 -308 -10 -348
-5 -40 -11 -160 -14 -266 -3 -106 -8 -197 -11 -202 -3 -6 -2 -10 3 -10 6 0 13
8 17 18 17 41 30 -53 35 -248 1 -34 3 -40 10 -25 6 16 9 13 12 -20 3 -22 3 -5
0 38 -3 57 -1 77 8 77 10 0 11 36 7 153 -3 91 -1 138 4 117 5 -21 6 20 4 108
-4 111 -2 143 8 139 8 -3 12 -37 13 -118 2 -188 2 -186 17 -165 8 11 20 17 28
14 7 -2 20 4 29 14 13 16 20 18 43 9 20 -8 34 -8 48 -1 21 12 26 46 7 52 -10
4 -10 10 0 32 6 15 12 41 13 59 0 18 4 41 9 52 5 12 9 -47 9 -152 l1 -173 51
0 51 0 -7 -412 c-6 -340 -9 -415 -21 -424 -21 -17 13 -24 111 -24 151 0 430
-14 395 -20 -19 -3 -159 -7 -310 -8 -151 -1 -340 -4 -420 -6 -80 -2 -123 -1
-95 1 30 3 53 10 58 19 6 10 13 12 20 6 7 -5 23 -6 36 -3 24 6 24 7 -17 42
-23 20 -42 39 -42 42 0 4 20 7 44 7 38 0 43 3 42 22 -1 14 -13 28 -36 41 -32
16 -35 21 -32 56 3 32 0 39 -22 49 -14 6 -26 17 -26 23 0 7 -10 9 -25 7 -14
-3 -25 -2 -25 3 0 4 -35 25 -77 45 -43 20 -72 39 -65 41 7 3 24 -2 37 -11 13
-9 27 -16 30 -16 9 0 5 49 -5 55 -5 3 -10 25 -10 47 l0 41 -45 -6 c-45 -7 -46
-6 -43 20 2 19 -2 28 -13 31 -15 3 -28 -19 -33 -52 0 -5 -6 -11 -13 -13 -8 -3
-10 8 -6 34 6 49 -21 76 -97 95 -45 12 -56 18 -58 37 -4 22 -1 24 40 19 23 -3
52 -9 63 -13 11 -5 17 -5 13 0 -4 4 4 22 18 38 23 27 32 31 72 30 34 -1 25 2
-28 9 -54 8 -87 7 -118 -1 -24 -6 -53 -9 -65 -6 -23 6 -56 45 -38 45 6 0 13
-4 16 -10 3 -5 17 -10 30 -10 13 0 27 5 30 10 3 6 18 10 33 10 25 1 25 1 8 12
-11 6 -39 10 -63 9 -24 0 -43 3 -43 9 0 5 7 7 15 4 10 -4 15 0 15 15 0 12 -4
21 -10 21 -5 0 -10 5 -10 11 0 6 -11 24 -25 41 -14 16 -25 36 -25 44 0 18 -24
44 -40 44 -7 0 -2 -8 11 -19 l23 -18 -31 4 c-35 6 -77 39 -68 54 8 12 35 12
35 -1 0 -5 7 -10 16 -10 12 0 15 6 10 25 -4 14 0 41 8 60 17 40 15 41 -19 19
-16 -11 -25 -12 -25 -5 0 6 7 14 15 17 8 4 15 11 15 16 0 6 -6 6 -14 -1 -10
-8 -16 -9 -21 -1 -12 19 5 29 37 23 27 -5 30 -4 25 11 -4 10 -7 29 -7 42 0 20
-5 24 -22 22 -43 -5 -179 25 -174 39 3 7 1 15 -4 18 -6 4 -10 -3 -10 -14 0
-12 -2 -21 -5 -21 -9 0 -55 24 -56 29 -1 3 -3 21 -5 40 -5 44 -7 46 -53 42
-27 -2 -40 2 -44 13 -8 21 2 46 19 46 8 0 14 5 14 10 0 10 -13 14 -36 11 -6
-1 -23 23 -39 53 -16 30 -31 53 -34 52 -3 -2 -15 1 -26 5 -18 9 -18 9 3 5 31
-6 28 10 -5 29 l-28 15 30 -6 c29 -6 29 -6 10 9 l-20 16 20 1 c27 0 41 -11 49
-36 5 -16 12 -21 28 -16 16 4 20 2 16 -10 -5 -11 0 -14 18 -10 14 2 24 0 24
-7 0 -7 5 -9 10 -6 6 3 10 0 10 -7 0 -7 7 1 16 17 12 21 19 76 26 190 14 244
29 227 26 -32 -1 -122 1 -226 5 -229 4 -4 7 10 7 32 0 21 5 46 10 54 7 11 8 6
4 -17 -8 -38 3 -86 16 -78 6 3 10 24 10 46 0 32 3 39 20 39 17 0 20 -7 20 -46
0 -43 16 -74 39 -74 5 0 13 -9 16 -20 3 -11 11 -20 16 -20 6 0 0 18 -12 40
-13 22 -26 40 -31 40 -4 0 -8 18 -8 40 0 33 3 40 20 40 17 0 20 -7 20 -39 0
-39 16 -56 43 -46 27 11 35 66 41 269 3 115 8 211 11 214 14 14 20 -18 23
-116 3 -117 -10 -316 -23 -346 -7 -17 -5 -18 16 -11 13 4 41 8 61 9 42 3 58
-19 39 -51 -6 -10 -11 -13 -11 -6 0 21 -37 35 -60 23 -26 -14 -26 -50 0 -57
13 -3 24 -19 30 -44 11 -39 25 -50 32 -27 5 13 78 -37 78 -53 0 -5 7 -9 15 -9
8 0 15 -7 15 -15 0 -8 6 -15 13 -15 7 0 33 -19 57 -42 82 -80 186 -148 140
-92 -12 13 -11 17 1 24 12 8 14 71 16 387 3 389 8 503 24 503 5 0 9 -114 9
-274z m-1610 254 c0 -5 -2 -10 -4 -10 -3 0 -8 5 -11 10 -3 6 -1 10 4 10 6 0
11 -4 11 -10z m3046 -25 c-8 -8 -19 -15 -25 -15 -6 0 -11 7 -11 15 0 9 10 15
26 15 23 0 24 -2 10 -15z m-1506 -85 c0 -56 -4 -90 -11 -90 -6 0 -9 33 -8 90
1 50 6 90 10 90 5 0 9 -40 9 -90z m-1100 -36 c0 -62 -4 -94 -11 -94 -6 0 -9 9
-6 20 3 11 1 20 -4 20 -10 0 -12 82 -3 129 12 58 24 20 24 -75z m1007 44 c-2
-13 -4 -3 -4 22 0 25 2 35 4 23 2 -13 2 -33 0 -45z m1376 45 c-13 -2 -33 -2
-45 0 -13 2 -3 4 22 4 25 0 35 -2 23 -4z m-2426 -50 c-3 -10 -5 -4 -5 12 0 17
2 24 5 18 2 -7 2 -21 0 -30z m2643 1 c0 -3 -5 -15 -12 -27 -11 -21 -11 -21
-18 -2 -4 11 -2 23 4 27 13 9 26 10 26 2z m-2648 -73 c2 -17 1 -28 -4 -25 -8
5 -12 54 -4 54 2 0 6 -13 8 -29z m2395 23 c-3 -3 -12 -4 -19 -1 -8 3 -5 6 6 6
11 1 17 -2 13 -5z m-887 -29 c10 -12 10 -15 -4 -15 -9 0 -16 7 -16 15 0 8 2
15 4 15 2 0 9 -7 16 -15z m-1630 -18 c11 -5 9 -6 -4 -4 -11 1 -21 9 -23 17 -3
10 -2 11 4 4 4 -6 15 -14 23 -17z m2510 13 c0 -5 -4 -10 -10 -10 -5 0 -10 5
-10 10 0 6 5 10 10 10 6 0 10 -4 10 -10z m256 -27 c-4 -4 -11 -1 -16 7 -16 25
-11 35 7 17 9 -9 13 -20 9 -24z m-1590 -170 c-9 -241 -16 -315 -30 -310 -13 5
-13 -7 4 280 17 273 36 295 26 30z m-1066 168 c0 -14 -29 -21 -36 -9 -4 6 -3
8 4 4 6 -3 13 -2 17 4 8 12 15 13 15 1z m2367 -38 c-3 -10 -5 -2 -5 17 0 19 2
27 5 18 2 -10 2 -26 0 -35z m-2107 23 c0 -3 -4 -8 -10 -11 -5 -3 -10 -1 -10 4
0 6 5 11 10 11 6 0 10 -2 10 -4z m-4711 -520 l-5 -381 0 450 c-1 248 2 419 5
381 3 -37 4 -240 0 -450z m1114 494 c4 -15 0 -20 -14 -20 -21 0 -22 1 -13 24
8 22 21 20 27 -4z m-526 -26 c-3 -3 -12 -4 -19 -1 -8 3 -5 6 6 6 11 1 17 -2
13 -5z m88 -24 c14 -6 -3 -8 -50 -8 -60 1 -64 2 -30 8 55 10 57 10 80 0z m93
-12 c15 -15 16 -161 2 -189 -9 -16 -22 -19 -75 -19 -37 0 -65 4 -65 10 0 6 19
10 43 11 55 1 80 11 83 35 17 116 18 111 -9 138 -22 22 -23 26 -9 26 10 0 23
-5 30 -12z m3848 -25 c-10 -10 -19 5 -10 18 6 11 8 11 12 0 2 -7 1 -15 -2 -18z
m-3589 -200 c-2 -37 -3 -9 -3 62 0 72 1 102 3 68 2 -34 2 -93 0 -130z m3680
181 c-3 -3 -12 -4 -19 -1 -8 3 -5 6 6 6 11 1 17 -2 13 -5z m612 -59 c-1 -55
-3 -64 -15 -54 -17 14 -18 33 -2 59 10 16 10 24 0 40 -10 17 -10 20 3 20 12 0
15 -14 14 -65z m728 3 c-2 -13 -4 -3 -4 22 0 25 2 35 4 23 2 -13 2 -33 0 -45z
m-5343 26 c8 -21 -11 -37 -38 -30 -27 7 -35 31 -13 39 20 8 46 3 51 -9z m3922
-9 c17 -13 17 -14 2 -15 -9 0 -20 5 -24 11 -4 8 -9 7 -15 -2 -5 -8 -9 -9 -9
-3 0 26 18 30 46 9z m49 -5 c3 -5 1 -10 -4 -10 -6 0 -11 5 -11 10 0 6 2 10 4
10 3 0 8 -4 11 -10z m864 -102 c-1 -62 -4 -81 -8 -58 -6 35 -3 150 5 150 2 0
3 -42 3 -92z m601 82 c0 -5 -4 -10 -10 -10 -5 0 -10 5 -10 10 0 6 5 10 10 10
6 0 10 -4 10 -10z m-5515 -19 c-3 -6 -11 -11 -17 -11 -6 0 -6 6 2 15 14 17 26
13 15 -4z m3994 -37 c17 -66 7 -65 -11 1 -8 30 -12 52 -8 50 4 -3 13 -26 19
-51z m538 9 c-3 -10 -5 -4 -5 12 0 17 2 24 5 18 2 -7 2 -21 0 -30z m1960 15
c-3 -8 -6 -5 -6 6 -1 11 2 17 5 13 3 -3 4 -12 1 -19z m-1057 2 c0 -5 -7 -7
-15 -4 -8 4 -15 8 -15 10 0 2 7 4 15 4 8 0 15 -4 15 -10z m-70 -10 c-8 -5 -22
-9 -30 -9 -10 0 -8 3 5 9 27 12 43 12 25 0z m875 0 c3 -5 -3 -10 -14 -10 -12
0 -21 5 -21 10 0 6 6 10 14 10 8 0 18 -4 21 -10z m-6237 -37 c-14 -18 -31 -16
-24 2 3 8 1 15 -4 15 -6 0 -10 -5 -10 -12 0 -6 -3 -8 -6 -5 -4 4 -1 13 5 21
10 12 17 13 31 3 14 -8 16 -15 8 -24z m5399 11 c-3 -3 -12 -4 -19 -1 -8 3 -5
6 6 6 11 1 17 -2 13 -5z m-4880 -71 c-3 -10 -5 -2 -5 17 0 19 2 27 5 18 2 -10
2 -26 0 -35z m3643 -31 c0 -17 5 -34 10 -37 7 -4 2 -16 -12 -31 -26 -26 -36
-30 -35 -11 1 6 -3 33 -7 59 -5 26 -5 59 -2 74 l7 26 19 -25 c11 -14 20 -39
20 -55z m-80 9 c-6 -12 -18 -21 -27 -21 -13 0 -11 5 8 23 28 27 35 27 19 -2z
m-3563 -43 c-3 -7 -5 -2 -5 12 0 14 2 19 5 13 2 -7 2 -19 0 -25z m-409 15 c78
-6 82 -7 82 -29 0 -27 -15 -32 -24 -9 -8 21 -26 19 -27 -2 0 -15 -2 -15 -8 2
-6 16 -23 22 -87 31 -91 13 -57 17 64 7z m296 -28 c3 -8 1 -15 -4 -15 -6 0
-10 7 -10 15 0 8 2 15 4 15 2 0 6 -7 10 -15z m3876 -5 c0 -5 -7 -7 -15 -4 -8
4 -15 8 -15 10 0 2 7 4 15 4 8 0 15 -4 15 -10z m-3763 -6 c-3 -3 -12 -4 -19
-1 -8 3 -5 6 6 6 11 1 17 -2 13 -5z m-330 -106 c-2 -18 -4 -6 -4 27 0 33 2 48
4 33 2 -15 2 -42 0 -60z m5331 25 c-2 -14 -8 -28 -14 -30 -7 -2 -9 8 -6 27 5
37 25 40 20 3z m-998 -39 c0 -12 -51 -54 -66 -54 -21 0 -17 17 6 23 11 3 20
12 20 21 0 9 8 16 20 16 11 0 20 -3 20 -6z m-440 -74 c0 -5 -4 -10 -10 -10 -5
0 -10 5 -10 10 0 6 5 10 10 10 6 0 10 -4 10 -10z m1187 -52 c-2 -13 -4 -3 -4
22 0 25 2 35 4 23 2 -13 2 -33 0 -45z m-160 -5 c-3 -10 -5 -2 -5 17 0 19 2 27
5 18 2 -10 2 -26 0 -35z m-3360 -60 c-3 -10 -5 -4 -5 12 0 17 2 24 5 18 2 -7
2 -21 0 -30z m3547 31 c20 -8 11 -24 -15 -24 -19 0 -25 11 -12 23 8 8 8 8 27
1z m-4821 -61 c-13 -2 -33 -2 -45 0 -13 2 -3 4 22 4 25 0 35 -2 23 -4z m4607
-30 c0 -20 -3 -33 -7 -29 -5 4 -8 21 -8 37 0 16 3 29 8 29 4 0 7 -16 7 -37z
m-5373 5 c-3 -8 -6 -5 -6 6 -1 11 2 17 5 13 3 -3 4 -12 1 -19z m764 -25 c4
-22 3 -33 -5 -34 -7 0 -6 -2 2 -6 6 -2 12 -13 12 -24 0 -15 -7 -19 -32 -18
-18 1 -25 3 -15 6 33 9 16 18 -30 16 -45 -1 -46 -1 -13 6 l35 8 -30 2 c-37 3
-80 19 -52 20 26 1 20 16 -7 17 -18 1 -26 -4 -29 -20 -3 -17 -5 -15 -6 7 -1
18 4 27 14 27 8 0 15 4 15 9 0 10 54 19 105 17 25 -1 30 -6 36 -33z m3964 17
c-3 -5 -10 -10 -16 -10 -5 0 -9 5 -9 10 0 6 7 10 16 10 8 0 12 -4 9 -10z
m-4095 -70 c0 -5 -2 -10 -4 -10 -3 0 -8 5 -11 10 -3 6 -1 10 4 10 6 0 11 -4
11 -10z m6013 -32 c12 -6 27 -16 33 -22 21 -21 64 -96 64 -111 0 -24 -17 -17
-29 13 -6 15 -25 35 -41 44 -17 9 -30 24 -30 33 0 8 -8 15 -17 15 -16 0 -16 2
-3 11 11 8 3 9 -30 5 l-45 -5 35 14 c19 7 36 14 38 14 2 1 13 -4 25 -11z
m-6234 -3 c-10 -10 -170 -15 -164 -5 3 6 43 10 87 10 45 0 79 -2 77 -5z m4161
-32 c0 -17 -5 -16 -24 3 -23 22 -20 37 4 22 11 -7 20 -18 20 -25z m-3805 7
c-3 -5 -14 -10 -23 -9 -14 0 -13 2 3 9 27 11 27 11 20 0z m685 -9 c0 -6 -4
-13 -10 -16 -5 -3 -10 1 -10 9 0 9 5 16 10 16 6 0 10 -4 10 -9z m3240 -1 c0
-5 -4 -10 -10 -10 -5 0 -10 5 -10 10 0 6 5 10 10 10 6 0 10 -4 10 -10z m-704
-27 c-10 -10 -19 5 -10 18 6 11 8 11 12 0 2 -7 1 -15 -2 -18z m539 17 c3 -5 1
-10 -4 -10 -6 0 -11 5 -11 10 0 6 2 10 4 10 3 0 8 -4 11 -10z m-3052 -15 c-3
-9 -8 -14 -10 -11 -3 3 -2 9 2 15 9 16 15 13 8 -4z m5052 -33 c-10 -10 -16
-12 -13 -7 3 6 8 19 13 30 5 14 9 16 12 7 3 -8 -3 -21 -12 -30z m-5812 21
c-13 -2 -33 -2 -45 0 -13 2 -3 4 22 4 25 0 35 -2 23 -4z m1217 -43 c-7 -21
-17 -37 -22 -34 -5 3 -8 -6 -6 -22 2 -17 -2 -28 -12 -31 -13 -4 -13 -3 0 6 9
6 10 11 3 11 -15 0 2 65 26 96 22 31 27 21 11 -26z m2845 20 c3 -5 1 -10 -4
-10 -6 0 -11 5 -11 10 0 6 2 10 4 10 3 0 8 -4 11 -10z m-4008 -30 c-1 -11 -5
-20 -9 -20 -4 0 -8 9 -8 20 0 11 4 20 9 20 6 0 9 -9 8 -20z m5807 8 c-3 -4 -9
-8 -15 -8 -5 0 -9 4 -9 8 0 5 7 9 15 9 8 0 12 -4 9 -9z m233 -20 c-3 -7 -5 -2
-5 12 0 14 2 19 5 13 2 -7 2 -19 0 -25z m-1782 -8 c-3 -5 -10 -10 -16 -10 -5
0 -9 5 -9 10 0 6 7 10 16 10 8 0 12 -4 9 -10z m-4402 -7 c-7 -2 -19 -2 -25 0
-7 3 -2 5 12 5 14 0 19 -2 13 -5z m4319 -16 c3 -13 1 -32 -3 -43 -9 -22 -9
-22 -15 29 -5 40 11 52 18 14z m1886 -62 l-1 -50 -4 45 c-3 24 -9 48 -15 51
-6 4 -7 12 -3 19 13 21 25 -11 23 -65z m-101 3 c-3 -7 -5 -2 -5 12 0 14 2 19
5 13 2 -7 2 -19 0 -25z m82 -32 c0 -43 -3 -55 -9 -41 -5 11 -6 35 -3 53 3 20
1 32 -6 32 -7 0 -11 -25 -11 -67 0 -38 -3 -78 -6 -90 -12 -45 -22 -11 -23 81
l-1 95 30 -1 30 -1 -1 -61z m-6194 23 c11 -17 -1 -21 -15 -4 -8 9 -8 15 -2 15
6 0 14 -5 17 -11z m4349 -23 c8 3 17 1 21 -5 3 -7 0 -8 -9 -5 -12 4 -16 0 -16
-16 0 -13 -5 -20 -12 -17 -7 2 -12 11 -12 19 1 9 -5 15 -14 14 -8 0 -16 5 -18
12 -1 7 0 8 3 2 8 -16 23 -12 23 8 1 16 1 16 11 0 5 -9 16 -15 23 -12z m1416
5 c0 -12 -71 -53 -79 -46 -3 4 3 12 14 18 73 43 65 39 65 28z m-4693 -53 c-3
-7 -5 -2 -5 12 0 14 2 19 5 13 2 -7 2 -19 0 -25z m3333 22 c0 -5 -4 -10 -10
-10 -5 0 -10 5 -10 10 0 6 5 10 10 10 6 0 10 -4 10 -10z m-4430 -4 c0 -3 -4
-8 -10 -11 -5 -3 -10 -1 -10 4 0 6 5 11 10 11 6 0 10 -2 10 -4z m5650 -38 c0
-19 -2 -20 -10 -8 -13 19 -13 30 0 30 6 0 10 -10 10 -22z m-4606 -37 c10 -11
15 -25 10 -32 -4 -7 -3 -10 4 -5 14 9 26 -15 46 -93 21 -83 14 -90 -9 -9 -20
71 -30 88 -55 88 -19 0 -30 19 -30 51 0 24 12 24 34 0z m-554 -41 c0 -33 7
-58 24 -82 l24 -35 -44 -88 c-26 -50 -44 -101 -44 -120 0 -18 -11 -91 -25
-162 -45 -227 -44 -519 1 -632 8 -18 16 -53 18 -77 3 -38 1 -44 -16 -44 -11 0
-16 -4 -13 -10 3 -5 -3 -10 -14 -10 -11 0 -25 -9 -31 -20 -15 -27 1 -26 45 4
l36 25 33 -22 c43 -29 32 -33 -107 -41 -76 -4 -128 -1 -175 9 -69 15 -167 47
-179 58 -3 4 32 7 80 7 47 0 121 5 163 11 l77 12 -8 634 -7 634 81 -2 81 -2 0
-47z m5650 -130 c-13 -18 -16 -30 -9 -43 11 -20 -1 -23 -19 -5 -17 17 -15 48
2 48 8 0 18 14 22 33 6 27 8 29 14 12 5 -13 1 -29 -10 -45z m-1473 24 c-3 -3
-12 -4 -19 -1 -8 3 -5 6 6 6 11 1 17 -2 13 -5z m726 -67 c-9 -16 -24 9 -17 28
7 18 8 18 14 -1 4 -10 5 -23 3 -27z m-4146 -34 c-3 -10 -5 -4 -5 12 0 17 2 24
5 18 2 -7 2 -21 0 -30z m4756 -35 c-8 -46 -13 -48 -13 -5 0 21 4 37 10 37 5 0
7 -14 3 -32z m-4913 8 c0 -3 -4 -8 -10 -11 -5 -3 -10 -1 -10 4 0 6 5 11 10 11
6 0 10 -2 10 -4z m21 -42 c5 -15 8 -29 5 -31 -2 -2 -8 10 -14 26 -13 38 -5 41
9 5z m156 -71 c-3 -10 -5 -2 -5 17 0 19 2 27 5 18 2 -10 2 -26 0 -35z m4733
17 c0 -11 -4 -20 -9 -20 -5 0 -7 9 -4 20 3 11 7 20 9 20 2 0 4 -9 4 -20z
m-4881 -41 c32 -32 46 -74 16 -49 -8 7 -15 18 -15 24 0 6 -17 21 -38 33 -30
18 -33 22 -15 23 12 0 35 -14 52 -31z m4881 -19 c0 -11 -4 -20 -10 -20 -5 0
-10 9 -10 20 0 11 5 20 10 20 6 0 10 -9 10 -20z m-6332 -49 c2 -6 -1 -11 -7
-11 -12 0 -61 44 -61 55 0 10 64 -32 68 -44z m6522 9 c0 -5 -4 -10 -10 -10 -5
0 -10 5 -10 10 0 6 5 10 10 10 6 0 10 -4 10 -10z m-6327 -7 c-7 -2 -21 -2 -30
0 -10 3 -4 5 12 5 17 0 24 -2 18 -5z m1556 -45 c9 -23 6 -38 -7 -38 -4 0 -13
14 -19 30 -9 25 -9 30 3 30 8 0 18 -10 23 -22z m2829 15 c-32 -2 -84 -2 -115
0 -32 2 -6 3 57 3 63 0 89 -1 58 -3z m145 0 c-13 -2 -33 -2 -45 0 -13 2 -3 4
22 4 25 0 35 -2 23 -4z m125 0 c-16 -2 -40 -2 -55 0 -16 2 -3 4 27 4 30 0 43
-2 28 -4z m-3214 -17 c51 -21 51 -34 0 -26 -49 8 -59 14 -49 29 8 14 9 14 49
-3z m-113 -42 c12 -33 5 -43 -11 -15 -6 12 -17 21 -25 21 -8 0 -15 5 -15 10 0
22 41 9 51 -16z m-71 -6 c0 -18 -2 -20 -9 -8 -6 8 -7 18 -5 22 9 14 14 9 14
-14z m120 7 c19 -23 8 -26 -19 -4 -16 13 -18 19 -8 19 8 0 20 -7 27 -15z
m2533 -16 c-4 -15 -8 -17 -13 -8 -10 15 -1 41 10 34 5 -3 6 -14 3 -26z m-101
-1 c-7 -7 -12 -8 -12 -2 0 14 12 26 19 19 2 -3 -1 -11 -7 -17z m2102 -5 c8
-19 8 -18 -27 -27 -22 -5 -27 -4 -23 6 3 7 9 21 12 30 7 19 30 14 38 -9z
m-634 -2 c0 -6 -15 -12 -32 -14 -30 -3 -30 -4 7 -5 l40 -2 -3 -75 c-3 -61 -1
-75 11 -75 19 0 26 31 24 97 -2 50 -1 52 28 57 17 3 45 8 63 12 28 6 32 4 32
-16 0 -18 4 -20 22 -14 13 4 35 7 50 6 18 0 29 6 33 19 4 10 13 19 21 19 20 0
18 -18 -3 -23 -10 -3 -5 -5 12 -6 24 -1 27 -3 15 -12 -12 -8 -10 -9 8 -4 13 4
22 2 22 -4 0 -7 36 -11 98 -12 l97 -2 -95 -11 c-70 -8 -95 -15 -95 -25 0 -8 7
-16 15 -18 13 -4 13 -3 0 6 -12 9 -11 11 7 11 16 0 21 -5 18 -19 -3 -16 5 -20
53 -26 l57 -8 -35 -12 c-33 -11 -34 -12 -10 -18 14 -4 40 -7 59 -7 19 0 31 -3
28 -7 -8 -8 11 -33 25 -33 6 0 8 9 5 21 -7 27 14 19 30 -11 8 -16 8 -27 2 -31
-5 -3 -6 -14 -3 -24 6 -15 4 -17 -10 -12 -22 9 -33 -19 -18 -44 16 -25 15 -27
-10 -32 -18 -3 -17 -5 7 -6 l30 -2 -25 -14 -25 -14 31 -1 c33 0 44 -14 44 -54
0 -12 4 -26 9 -31 4 -6 11 -22 15 -36 l6 -26 -85 3 c-68 2 -85 0 -85 -12 0
-10 11 -13 45 -9 25 2 45 1 45 -4 0 -10 -50 -21 -97 -21 -34 0 -35 0 -29 -37
19 -139 20 -133 -11 -134 -26 -2 -25 -2 7 -9 19 -4 29 -8 23 -9 -7 0 -13 -14
-13 -30 0 -28 2 -30 42 -29 31 0 37 3 25 10 -32 17 -17 28 16 12 18 -10 27
-19 19 -22 -17 -5 4 -32 25 -32 13 0 13 -2 2 -17 -10 -12 -11 -17 -2 -20 8 -3
6 -10 -6 -22 -15 -15 -17 -27 -10 -82 5 -45 4 -66 -4 -71 -15 -10 -19 -9 98
-24 l100 -13 -90 4 c-49 3 -112 8 -139 11 -36 5 -47 4 -42 -4 4 -7 19 -12 34
-12 15 0 43 -5 63 -10 l37 -10 -42 -43 c-42 -43 -57 -76 -34 -78 25 -2 -37
-17 -74 -18 -20 -1 -39 -4 -41 -8 -3 -5 15 -6 39 -4 41 3 44 1 44 -22 0 -26
14 -34 97 -58 32 -9 40 -15 33 -24 -6 -7 -11 -30 -13 -51 -1 -29 -7 -41 -22
-46 -19 -6 -19 -6 2 -7 25 -1 43 -21 19 -21 -22 0 -20 -36 2 -55 9 -9 35 -31
56 -50 43 -39 47 -41 44 -22 -4 16 30 10 49 -9 17 -16 33 -18 33 -4 0 6 -5 10
-11 10 -6 0 -3 7 5 16 9 8 16 19 16 23 0 5 11 6 25 3 19 -3 25 0 25 13 0 14 4
13 20 -8 12 -15 18 -33 14 -44 -11 -35 -39 -83 -47 -83 -22 0 8 -20 31 -21 21
-1 22 -2 7 -6 -30 -7 -37 -17 -27 -44 5 -13 6 -34 1 -47 l-8 -22 -53 21 c-29
11 -72 25 -94 30 -39 10 -41 11 -30 34 7 16 25 27 53 35 53 13 59 40 9 40 -94
0 -160 -23 -106 -37 13 -3 20 -12 18 -22 -4 -17 -43 -19 -103 -6 l-30 6 30
-14 c17 -7 59 -21 95 -31 155 -41 228 -100 135 -110 -22 -3 -96 -12 -165 -20
-209 -27 -402 -46 -462 -46 -31 0 -114 14 -185 30 -70 17 -137 29 -148 27 -15
-3 -14 -5 6 -6 15 0 42 -7 61 -15 19 -8 81 -27 139 -41 124 -32 127 -32 629
34 85 12 158 21 161 21 7 0 -5 -82 -15 -98 -4 -8 2 -16 18 -22 16 -6 26 -17
26 -30 0 -25 23 -22 31 5 4 15 8 8 15 -25 9 -40 13 -45 37 -45 16 -1 32 -7 37
-14 4 -8 15 -11 23 -8 9 3 18 -1 21 -9 3 -9 10 -13 15 -9 6 3 13 -10 17 -30 3
-19 10 -35 15 -35 14 0 11 -17 -3 -17 -7 -1 -60 -8 -117 -17 -100 -14 -107
-14 -160 5 -58 21 -71 24 -231 57 -52 11 -142 33 -200 50 -58 16 -166 47 -240
67 -227 64 -209 57 -180 66 14 4 60 7 103 8 44 1 77 5 77 11 0 12 -196 4 -590
-23 -23 -2 -35 -8 -35 -17 0 -8 6 -14 14 -12 8 2 92 8 187 15 l173 11 103 -32
c57 -18 119 -38 138 -44 19 -6 53 -15 75 -19 54 -9 135 -32 220 -63 57 -21 64
-26 38 -26 -36 0 -56 -20 -21 -21 21 -1 21 -2 -6 -13 -52 -23 -9 -27 50 -5 91
34 182 27 276 -22 10 -5 26 -9 35 -10 10 0 -45 -14 -122 -30 -128 -27 -166
-30 -445 -39 -472 -14 -633 -21 -657 -26 -17 -3 -23 0 -23 13 0 14 -2 15 -9 4
-5 -8 -16 -11 -24 -8 -9 3 -17 1 -19 -5 -3 -9 -38 -9 -127 -2 -68 5 -125 6
-128 1 -2 -4 17 -8 44 -8 26 -1 -1 -6 -62 -11 -60 -4 -123 -7 -140 -5 -19 3
-13 4 17 5 62 3 74 22 13 22 -43 0 -83 -13 -95 -30 -3 -4 -66 -9 -140 -12 -74
-3 -116 -3 -92 -1 23 2 42 6 42 8 0 15 -14 35 -25 35 -7 0 -16 6 -18 12 -3 8
-6 6 -6 -4 -1 -14 -10 -18 -35 -18 -25 0 -36 -5 -41 -19 -5 -17 -15 -19 -103
-17 -53 2 -108 -1 -122 -5 -21 -7 -19 -8 15 -7 22 0 56 -1 75 -2 37 -3 -73
-12 -302 -25 l-136 -8 -4 184 c-2 101 -3 185 -3 186 1 1 23 -4 50 -12 26 -8
61 -15 77 -15 21 0 28 -4 26 -16 -3 -19 37 -30 47 -14 3 6 -3 10 -14 10 -12 0
-21 5 -21 10 0 6 10 10 22 10 59 0 -24 19 -150 34 -27 3 -35 11 -39 36 -3 20
-3 20 17 0 11 -11 31 -22 45 -25 14 -3 36 -7 49 -10 19 -4 25 1 32 28 7 23 20
37 48 51 42 21 132 43 208 52 51 6 50 6 63 -49 5 -25 8 -27 22 -15 9 7 18 12
20 11 18 -14 52 64 38 87 -3 5 7 12 22 16 15 3 51 12 78 20 l50 14 -55 -5
c-147 -11 -179 -17 -185 -36 -7 -20 -25 -26 -25 -9 0 6 -8 10 -17 10 -15 0
-16 -2 -3 -10 8 -5 12 -10 8 -10 -3 0 -13 -3 -21 -6 -11 -4 -13 1 -9 21 4 21
9 25 24 21 11 -2 28 -1 37 4 21 11 314 57 451 71 58 5 164 12 235 13 141 4
319 18 436 35 41 6 97 13 124 17 28 4 44 9 38 11 -13 5 -108 -4 -348 -32 -71
-8 -184 -15 -250 -15 -66 0 -183 -7 -260 -16 -201 -22 -213 -23 -235 -7 -14
10 -20 25 -20 50 0 29 3 33 14 24 19 -16 45 -3 52 25 3 13 10 24 14 24 5 0 11
8 14 18 5 14 30 21 128 35 68 10 155 23 193 29 39 6 76 11 83 11 7 0 12 14 12
33 0 31 -1 32 -62 43 -35 5 -92 13 -128 17 -111 12 -108 19 16 38 66 9 138 21
162 27 23 5 55 9 70 9 15 0 34 5 42 11 11 7 -2 8 -42 3 l-58 -6 1 28 c1 17 3
22 6 11 5 -17 23 -24 23 -8 0 5 8 7 19 4 10 -3 22 0 25 6 4 6 33 12 64 12 l57
2 -45 8 c-25 4 -99 9 -165 11 l-120 3 4 -44 c3 -42 2 -43 -21 -38 -54 15 -178
20 -192 8 -9 -8 -31 -10 -66 -5 l-52 7 31 13 c23 10 31 19 31 39 l0 25 106 0
c89 0 105 2 101 15 -8 18 6 27 28 19 13 -5 14 -8 3 -15 -8 -6 -1 -9 22 -9 19
0 59 -3 88 -6 l52 -7 0 40 c0 36 3 41 25 45 14 3 28 1 31 -3 3 -5 29 -9 57 -8
l52 1 -40 13 c-22 8 -59 14 -83 14 l-43 1 3 72 3 71 80 23 c93 26 85 32 -11 8
-36 -9 -67 -14 -70 -11 -3 3 -2 21 1 41 7 33 10 36 44 38 l36 1 -37 4 c-30 3
-38 9 -38 24 0 10 5 19 11 19 6 0 8 7 5 16 -4 10 5 25 25 41 26 22 28 28 15
35 -24 14 -20 64 6 83 21 14 24 14 34 0 6 -8 19 -15 28 -15 9 0 16 -4 16 -10
0 -5 -7 -10 -17 -10 -9 0 -13 -3 -10 -6 3 -4 31 -6 62 -5 41 1 62 6 77 21 12
11 27 21 32 22 22 3 52 5 104 7 85 2 53 16 -70 31 -74 9 -106 16 -93 21 18 7
18 8 -5 10 -14 2 -36 3 -49 4 -32 1 -40 25 -11 32 16 4 18 8 8 14 -10 7 -9 9
4 9 18 0 33 46 30 92 -1 14 2 38 8 53 8 22 7 26 -8 24 -33 -3 -42 1 -42 21 0
15 7 20 28 21 15 0 36 4 47 8 16 7 12 10 -22 15 -23 4 -46 5 -51 2 -18 -11
-97 -6 -310 19 -34 4 -64 11 -67 14 -2 4 59 15 137 26 186 24 224 34 106 27
-63 -3 -98 -1 -98 5 0 13 106 23 254 23 101 0 117 2 107 14 -10 12 -8 15 11
18 15 2 25 13 32 36 9 32 11 33 76 36 19 1 24 6 22 20 -3 17 -2 18 12 7 14
-12 16 -9 17 20 1 59 8 94 19 97 6 2 16 15 21 29 6 15 15 23 23 20 8 -3 17 -3
20 1 4 3 31 4 61 3 44 -2 55 1 55 13 0 12 11 16 50 16 28 0 50 -4 50 -9z
m-1800 -27 c10 -10 11 -17 3 -25 -10 -10 -15 -7 -52 37 -12 15 -11 16 10 9 13
-4 31 -13 39 -21z m2280 0 c0 -2 -9 -4 -20 -4 -11 0 -20 4 -20 9 0 5 9 7 20 4
11 -3 20 -7 20 -9z m-2208 -86 c-12 -13 -22 -17 -22 -11 0 15 31 46 38 38 3
-3 -4 -15 -16 -27z m68 -13 c0 -5 -5 -3 -10 5 -5 8 -10 20 -10 25 0 6 5 3 10
-5 5 -8 10 -19 10 -25z m-1803 -37 c-3 -8 -6 -5 -6 6 -1 11 2 17 5 13 3 -3 4
-12 1 -19z m4010 16 c-3 -3 -12 -4 -19 -1 -8 3 -5 6 6 6 11 1 17 -2 13 -5z
m128 -64 c-3 -5 -10 -10 -16 -10 -5 0 -9 5 -9 10 0 6 7 10 16 10 8 0 12 -4 9
-10z m-4128 -127 c-3 -10 -5 -4 -5 12 0 17 2 24 5 18 2 -7 2 -21 0 -30z m1528
28 c6 -11 -33 -36 -42 -27 -7 7 16 36 28 36 4 0 10 -4 14 -9z m75 -31 c0 -5
-4 -10 -10 -10 -5 0 -10 5 -10 10 0 6 5 10 10 10 6 0 10 -4 10 -10z m559 -38
c-13 -2 -28 -8 -34 -13 -7 -7 -4 -8 6 -4 10 4 20 2 24 -4 3 -6 -2 -11 -12 -12
-13 0 -9 -4 11 -13 23 -11 25 -14 11 -19 -9 -4 -32 -7 -50 -7 -22 0 -38 -6
-45 -17 -11 -19 -8 1 11 78 l9 35 47 -10 c35 -8 41 -12 22 -14z m144 -59 c-18
-2 -48 -2 -65 0 -18 2 -4 4 32 4 36 0 50 -2 33 -4z m2527 -24 c0 -3 -25 -9
-56 -13 -31 -3 -65 -11 -76 -17 -25 -14 -35 -4 -16 15 20 20 148 33 148 15z
m-6517 -14 c1 -5 -6 -11 -15 -13 -11 -2 -18 3 -18 13 0 17 30 18 33 0z m1447
-57 c25 -163 26 -148 -12 -149 l-33 -2 35 -7 35 -7 -35 -3 -35 -3 40 -6 c38
-6 41 -9 49 -49 5 -23 6 -45 3 -48 -11 -12 -340 -18 -334 -6 12 17 -4 42 -27
43 -11 0 -37 6 -56 13 -30 11 -32 14 -15 19 11 3 52 6 90 7 91 1 255 17 197
19 -26 0 -41 5 -37 11 4 6 -23 10 -74 10 -95 0 -107 16 -38 49 24 12 53 30 65
41 11 11 25 20 29 20 4 0 35 27 67 60 33 33 63 60 67 60 4 0 12 -33 19 -72z
m2905 52 c-3 -5 -12 -7 -20 -3 -21 7 -19 13 6 13 11 0 18 -4 14 -10z m2241
-21 c4 -7 0 -9 -14 -5 -11 4 -23 2 -27 -4 -3 -6 -10 -8 -15 -5 -4 3 -7 -9 -6
-25 2 -34 4 -33 -46 -19 -51 14 -48 32 10 51 57 20 89 22 98 7z m-2386 -19 c0
-5 -9 -10 -20 -10 -11 0 -20 5 -20 10 0 6 9 10 20 10 11 0 20 -4 20 -10z
m-4234 -58 c-3 -26 -17 -89 -30 -140 -12 -51 -20 -94 -17 -96 11 -7 71 6 71
15 0 5 -14 6 -32 2 -21 -4 -29 -3 -24 5 4 6 14 8 23 5 9 -4 14 -2 10 3 -11 19
11 36 54 41 34 3 41 2 29 -7 -12 -9 -11 -10 6 -5 11 3 53 -1 93 -10 40 -8 95
-15 122 -15 36 0 49 -4 46 -12 -2 -7 2 -21 10 -30 13 -14 13 -18 -4 -26 -41
-22 -162 -24 -295 -6 -73 9 -134 18 -136 19 -1 1 2 15 8 31 6 16 18 63 26 104
24 122 36 170 41 170 3 0 3 -22 -1 -48z m4374 23 c0 -8 -4 -17 -10 -20 -6 -4
-10 5 -10 20 0 15 4 24 10 20 6 -3 10 -12 10 -20z m-116 -16 c-7 -11 -52 -10
-79 1 -22 10 -22 10 19 15 15 2 31 6 34 9 8 9 33 -15 26 -25z m2139 -26 c3 -5
-28 -7 -68 -5 -41 2 -84 -1 -97 -8 -22 -11 -22 -10 -4 4 21 17 160 23 169 9z
m-4614 -233 c0 -9 -4 -6 -12 8 -7 12 -16 19 -20 16 -4 -4 -7 19 -6 52 l0 59
19 -60 c11 -33 20 -67 19 -75z m4717 121 c-3 -5 -15 -7 -26 -4 -28 7 -25 13 6
13 14 0 23 -4 20 -9z m-766 -56 c0 -8 -6 -15 -14 -15 -17 0 -28 14 -19 24 12
12 33 6 33 -9z m-1447 -144 c201 -17 162 -27 -248 -66 -88 -8 -191 -20 -230
-25 -38 -6 -113 -15 -165 -20 -52 -5 -162 -20 -245 -34 -207 -35 -234 -36
-344 -16 -174 33 -179 36 -66 44 152 10 511 51 830 95 106 15 120 19 121 36 1
11 2 23 3 26 1 3 54 -3 119 -13 64 -10 166 -22 225 -27z m2057 24 c0 -3 -10
-10 -22 -14 -23 -9 -23 -9 5 -20 16 -6 39 -11 52 -11 13 0 25 -4 27 -10 2 -5
28 -14 58 -19 41 -6 47 -9 22 -10 -18 0 -52 3 -75 8 -23 5 -71 15 -107 22 -79
14 -109 28 -64 29 18 0 45 7 60 15 30 16 44 19 44 10z m-4380 -105 c0 -19 -5
-30 -14 -30 -12 0 -12 5 -3 30 6 17 13 30 14 30 2 0 3 -13 3 -30z m-191 -62
c0 -13 -3 -17 -6 -10 -2 6 -19 12 -36 12 -24 0 -28 3 -17 10 8 5 25 10 38 10
16 0 22 -6 21 -22z m381 -208 c8 -5 11 -10 5 -10 -5 0 -17 5 -25 10 -8 5 -10
10 -5 10 6 0 17 -5 25 -10z m-55 -109 c3 -5 1 -12 -4 -15 -5 -3 -11 1 -15 9
-6 16 9 21 19 6z m1325 0 c-14 -5 -77 -11 -140 -16 -63 -4 -121 -12 -128 -17
-15 -13 -27 -4 -19 14 2 8 22 15 43 16 21 2 40 5 43 7 2 3 54 5 115 4 69 0
101 -4 86 -8z m-1120 -16 c-7 -8 -17 -15 -23 -15 -6 0 -2 7 9 15 25 19 30 19
14 0z m143 -92 c-7 -2 -19 -2 -25 0 -7 3 -2 5 12 5 14 0 19 -2 13 -5z m281
-128 c25 -19 17 -19 -25 0 -24 10 -28 14 -14 14 11 0 29 -6 39 -14z m-1471
-52 c-18 -2 -48 -2 -65 0 -18 2 -4 4 32 4 36 0 50 -2 33 -4z m95 0 c-10 -2
-26 -2 -35 0 -10 3 -2 5 17 5 19 0 27 -2 18 -5z m1199 -19 c-3 -3 -12 -4 -19
-1 -8 3 -5 6 6 6 11 1 17 -2 13 -5z m322 -3 c18 -11 6 -81 -14 -81 -15 0 -9
-40 9 -52 6 -4 -5 -8 -25 -8 l-35 0 7 58 c4 31 8 65 8 75 1 18 27 23 50 8z
m-95 -27 c12 -5 16 -20 16 -60 0 -63 20 -58 -177 -44 -131 9 -153 15 -206 57
l-27 22 37 10 c21 5 49 12 63 14 40 7 277 8 294 1z m-659 -14 c3 -5 -1 -10 -9
-10 -9 0 -16 5 -16 10 0 6 4 10 9 10 6 0 13 -4 16 -10z m218 -57 c-7 -2 -19
-2 -25 0 -7 3 -2 5 12 5 14 0 19 -2 13 -5z m547 -14 c0 -5 -4 -9 -10 -9 -5 0
-10 7 -10 16 0 8 5 12 10 9 6 -3 10 -10 10 -16z m80 -9 c24 -8 24 -8 -7 -9
-17 -1 -35 4 -38 9 -7 11 9 11 45 0z m3110 -40 c0 -5 -4 -10 -10 -10 -5 0 -10
5 -10 10 0 6 5 10 10 10 6 0 10 -4 10 -10z m-3202 -14 c3 -3 -1 -6 -8 -6 -11
0 -10 -3 2 -12 10 -8 15 -27 14 -52 -1 -35 -5 -41 -30 -47 -17 -5 -31 -7 -32
-6 -1 1 -4 32 -6 69 l-4 67 29 -4 c16 -2 32 -6 35 -9z m672 -26 c0 -5 -4 -10
-10 -10 -5 0 -10 5 -10 10 0 6 5 10 10 10 6 0 10 -4 10 -10z m-261 -15 c8 -8
-82 -4 -124 5 -31 7 -22 8 40 4 43 -3 81 -7 84 -9z m124 -12 c-7 -2 -21 -2
-30 0 -10 3 -4 5 12 5 17 0 24 -2 18 -5z m57 -3 c0 -13 -11 -13 -30 0 -12 8
-11 10 8 10 12 0 22 -4 22 -10z m-3032 -50 c6 0 12 -12 12 -26 0 -35 -29 -146
-42 -162 -6 -7 -13 -54 -16 -106 -5 -103 7 -153 59 -253 16 -30 29 -61 29 -69
0 -8 3 -14 8 -14 4 0 12 -10 17 -22 6 -13 20 -28 33 -34 31 -15 15 -20 -86
-23 l-84 -3 6 259 c3 142 6 305 6 362 0 102 0 103 23 97 12 -3 28 -6 35 -6z
m2427 -40 c3 -5 -3 -10 -15 -10 -12 0 -18 5 -15 10 3 6 10 10 15 10 5 0 12 -4
15 -10z m-2855 -36 c0 -14 -4 -23 -10 -19 -5 3 -10 15 -10 26 0 10 5 19 10 19
6 0 10 -12 10 -26z m2880 4 c0 -5 -18 -8 -40 -8 -22 0 -40 3 -40 8 0 4 18 7
40 7 22 0 40 -3 40 -7z m2213 5 c-7 -2 -19 -2 -25 0 -7 3 -2 5 12 5 14 0 19
-2 13 -5z m-3639 -19 c3 -9 6 -26 6 -38 0 -20 -5 -23 -37 -21 -39 3 -39 3 -35
55 2 25 57 29 66 4z m1333 10 c-3 -3 -12 -4 -19 -1 -8 3 -5 6 6 6 11 1 17 -2
13 -5z m181 -1 c-10 -2 -26 -2 -35 0 -10 3 -2 5 17 5 19 0 27 -2 18 -5z m180
0 c-10 -2 -26 -2 -35 0 -10 3 -2 5 17 5 19 0 27 -2 18 -5z m119 0 c-20 -2 -52
-2 -70 0 -17 2 0 4 38 4 39 0 53 -2 32 -4z m-401 -21 c16 -11 18 -382 2 -382
-9 0 -8 -3 2 -10 12 -8 12 -10 -5 -10 -16 -1 -13 -4 10 -15 17 -7 24 -14 18
-14 -9 -1 -13 -24 -13 -80 0 -49 -4 -83 -11 -87 -9 -5 -10 6 -7 41 4 29 2 42
-3 34 -5 -8 -9 -31 -9 -51 0 -20 -5 -40 -10 -43 -6 -4 -10 -3 -9 2 1 4 1 17 0
28 -1 15 -3 17 -10 7 -14 -24 -20 72 -21 336 l0 252 27 0 c16 0 33 -4 39 -8z
m331 2 c-3 -3 -12 -4 -19 -1 -8 3 -5 6 6 6 11 1 17 -2 13 -5z m-1749 -81 c-16
-2 -40 -2 -55 0 -16 2 -3 4 27 4 30 0 43 -2 28 -4z m-14 -65 c-8 -52 -22 -72
-39 -58 -6 5 -15 7 -18 3 -4 -3 -7 14 -7 40 0 42 2 46 28 50 15 2 30 5 35 6 4
0 4 -18 1 -41z m4226 -38 c-8 -5 -22 -10 -30 -10 -13 0 -13 1 0 10 8 5 22 10
30 10 13 0 13 -1 0 -10z m515 -70 c4 -6 -9 -10 -32 -9 -38 1 -38 1 -8 9 17 4
31 8 32 9 1 0 5 -3 8 -9z m58 3 c-7 -2 -19 -2 -25 0 -7 3 -2 5 12 5 14 0 19
-2 13 -5z m-16 -19 c-3 -3 -12 -4 -19 -1 -8 3 -5 6 6 6 11 1 17 -2 13 -5z
m-257 -19 c-14 -8 -19 -14 -12 -15 21 0 13 -90 -8 -90 -5 0 -10 15 -12 33 -3
28 -7 32 -33 33 -27 2 -27 1 -3 -3 25 -4 26 -7 25 -54 0 -27 -4 -49 -9 -49 -4
0 -8 5 -8 10 0 6 -13 10 -30 10 -26 0 -30 4 -30 26 0 19 -5 25 -17 22 -12 -2
-20 -16 -24 -43 l-5 -40 -8 37 c-5 21 -6 45 -2 53 3 8 1 15 -5 15 -6 0 -7 5
-4 10 3 6 -4 10 -17 10 -13 0 -18 -4 -13 -8 13 -10 20 -62 19 -147 -1 -38 -3
-114 -3 -168 -1 -59 -6 -97 -12 -97 -13 0 -60 36 -54 41 2 2 6 36 8 74 3 39
10 83 17 99 17 44 -13 121 -34 87 -3 -5 1 -12 9 -15 10 -4 15 -17 13 -38 -3
-43 -18 -60 -37 -41 -7 8 -19 12 -27 9 -7 -3 -15 0 -18 7 -2 7 -5 0 -5 -15 -1
-16 -5 -28 -11 -28 -8 0 -15 37 -11 63 0 4 -55 7 -123 7 l-123 0 -7 -62 c-6
-49 -10 -59 -18 -45 -5 10 -8 32 -7 50 1 18 1 43 0 57 -2 23 -4 22 -16 -10
-11 -28 -14 -30 -14 -12 -1 19 -6 22 -46 22 -40 0 -45 -3 -45 -22 l0 -21 -23
21 c-31 29 -83 29 -114 0 l-23 -21 0 21 c0 30 -49 31 -57 2 -3 -11 -9 -20 -13
-20 -5 0 -10 -8 -12 -17 -2 -13 -9 -7 -21 19 -18 38 -31 46 -42 28 -3 -6 -26
-10 -51 -10 -32 0 -44 4 -44 15 0 11 -11 15 -40 15 l-40 0 -1 -107 c-1 -128
-18 -100 -20 32 -1 145 -1 151 -6 128 -7 -37 -21 -26 -24 20 l-4 43 90 2 c50
2 173 7 275 12 102 6 291 14 420 20 228 9 299 16 445 44 92 18 94 18 65 1z
m208 8 c-10 -2 -28 -2 -40 0 -13 2 -5 4 17 4 22 1 32 -1 23 -4z m-115 -10 c-7
-2 -21 -2 -30 0 -10 3 -4 5 12 5 17 0 24 -2 18 -5z m-70 -18 c-3 -9 -8 -14
-10 -11 -3 3 -2 9 2 15 9 16 15 13 8 -4z m194 -22 c-3 -10 -5 -4 -5 12 0 17 2
24 5 18 2 -7 2 -21 0 -30z m29 -8 c-1 -49 -16 -63 -16 -16 0 27 8 61 15 61 1
0 2 -20 1 -45z m-126 -1 c0 -14 -4 -23 -10 -19 -5 3 -10 15 -10 26 0 10 5 19
10 19 6 0 10 -12 10 -26z m147 -26 c-3 -7 -5 -2 -5 12 0 14 2 19 5 13 2 -7 2
-19 0 -25z m-1667 -21 c0 -26 -25 -67 -41 -67 -14 0 -32 30 -31 50 0 3 -25 3
-55 1 -37 -2 -51 -6 -42 -12 10 -6 1 -9 -26 -9 -39 0 -68 -11 -66 -24 1 -3 1
-18 1 -33 -1 -24 -2 -26 -11 -10 -6 9 -7 26 -4 37 5 15 1 19 -17 18 -13 -1
-59 0 -103 2 l-80 4 95 6 95 6 -122 2 c-77 1 -123 -2 -123 -8 0 -5 -21 -9 -47
-8 -43 1 -44 2 -13 6 33 5 33 5 10 12 -14 4 33 8 104 9 71 1 132 4 137 6 4 3
62 7 129 9 67 2 124 7 127 10 12 12 83 6 83 -7z m36 -81 c-4 -51 -11 -106 -16
-122 -8 -29 -8 -29 -10 9 -1 20 -1 57 -1 82 0 118 1 125 17 125 15 0 16 -11
10 -94z m53 52 c-1 -24 -3 -35 -6 -25 -2 9 -9 15 -14 12 -5 -4 -9 8 -9 24 0
21 5 31 15 31 11 0 15 -11 14 -42z m1180 5 c-1 -34 -2 -35 -9 -13 -11 36 -11
50 0 50 6 0 10 -17 9 -37z m-2673 16 c5 -9 -6 -10 -37 -5 -24 3 -59 2 -76 -3
-38 -11 -44 -5 -10 9 32 13 115 12 123 -1z m637 4 c-7 -2 -19 -2 -25 0 -7 3
-2 5 12 5 14 0 19 -2 13 -5z m117 -33 c-8 -5 -26 -10 -40 -10 -14 0 -32 5 -40
10 -11 7 1 10 40 10 39 0 51 -3 40 -10z m-385 -10 c-4 -6 8 -10 30 -10 22 0
34 4 30 10 -4 6 6 10 22 10 l28 0 -35 -17 c-19 -10 -36 -21 -38 -25 -6 -14
-42 -8 -42 7 0 9 -10 15 -22 16 -22 1 -22 1 2 9 14 4 26 8 28 9 2 1 0 -3 -3
-9z m318 -11 c42 -7 77 -16 77 -20 0 -8 -149 -23 -157 -15 -4 3 12 6 35 6 22
0 44 5 47 10 4 6 -10 10 -34 10 -22 0 -43 5 -46 10 -12 19 -22 10 -17 -15 6
-33 -6 -81 -19 -68 -5 5 -10 24 -12 43 -3 32 -6 35 -33 33 -20 -2 -25 0 -15 6
11 7 10 10 -5 13 -46 10 109 -1 179 -13z m2237 11 c0 -5 -4 -10 -9 -10 -6 0
-13 5 -16 10 -3 6 1 10 9 10 9 0 16 -4 16 -10z m-2619 -12 c22 -6 39 -15 39
-19 0 -4 -13 -19 -30 -32 -16 -14 -30 -32 -31 -39 0 -10 -2 -10 -6 0 -8 21
-21 13 -17 -10 2 -13 -2 -7 -10 12 -7 19 -11 40 -7 45 3 6 7 2 9 -7 3 -16 32
-27 32 -12 0 9 -28 34 -38 34 -12 0 -23 26 -15 34 9 9 31 7 74 -6z m953 3 c11
-4 -4 -7 -38 -7 -31 1 -56 4 -56 9 0 9 69 8 94 -2z m-391 -8 c-18 -2 -34 -7
-34 -11 -1 -4 -3 -20 -5 -36 -6 -55 -21 -49 -30 12 l-6 42 54 -2 c35 -1 42 -3
21 -5z m84 1 c-3 -3 -12 -4 -19 -1 -8 3 -5 6 6 6 11 1 17 -2 13 -5z m140 -14
c3 -10 2 -11 -4 -4 -4 7 -19 14 -33 17 -22 4 -21 5 4 4 17 -1 31 -9 33 -17z
m-4088 -2 c11 -10 13 -10 7 0 -5 9 5 12 39 12 25 0 44 -4 41 -9 -3 -5 2 -8 11
-7 9 0 18 -4 20 -10 2 -7 -22 -16 -64 -23 -37 -7 -76 -14 -85 -16 -10 -2 -21
1 -24 6 -3 5 2 9 10 9 9 0 16 4 16 10 0 5 -7 7 -15 4 -18 -7 -20 7 -3 24 15
15 31 15 47 0z m5638 -20 c-3 -7 -5 -2 -5 12 0 14 2 19 5 13 2 -7 2 -19 0 -25z
m30 -20 c-2 -13 -4 -5 -4 17 -1 22 1 32 4 23 2 -10 2 -28 0 -40z m28 42 c3 -5
1 -10 -4 -10 -6 0 -11 5 -11 10 0 6 2 10 4 10 3 0 8 -4 11 -10z m55 -5 c0 -8
-4 -15 -10 -15 -5 0 -10 7 -10 15 0 8 5 15 10 15 6 0 10 -7 10 -15z m30 11 c0
-3 -4 -8 -10 -11 -5 -3 -10 -1 -10 4 0 6 5 11 10 11 6 0 10 -2 10 -4z m95 -34
c-6 -7 -35 18 -35 31 0 5 9 2 20 -8 11 -10 18 -20 15 -23z m182 1 c-3 -10 -5
-4 -5 12 0 17 2 24 5 18 2 -7 2 -21 0 -30z m-2917 11 c0 -2 -7 -4 -15 -4 -8 0
-15 4 -15 10 0 5 7 7 15 4 8 -4 15 -8 15 -10z m40 6 c0 -5 -8 -10 -17 -10 -15
0 -16 2 -3 10 19 12 20 12 20 0z m260 -20 c0 -5 -4 -10 -10 -10 -5 0 -10 5
-10 10 0 6 5 10 10 10 6 0 10 -4 10 -10z m-235 -20 c8 -13 -25 -13 -45 0 -12
8 -9 10 12 10 15 0 30 -4 33 -10z m2462 -82 c-2 -13 -4 -3 -4 22 0 25 2 35 4
23 2 -13 2 -33 0 -45z m-4358 36 c2 -2 -43 -3 -100 -3 -67 1 -91 4 -69 8 33 7
160 2 169 -5z m1928 -6 c-3 -8 -6 -5 -6 6 -1 11 2 17 5 13 3 -3 4 -12 1 -19z
m-3107 -68 c0 -5 -9 -10 -20 -10 -11 0 -20 5 -20 10 0 6 9 10 20 10 11 0 20
-4 20 -10z m1126 -10 c15 0 18 -28 8 -79 l-6 -31 -83 0 -83 0 -4 48 c-3 26 -3
49 -2 51 2 2 31 5 66 8 35 3 67 9 73 14 6 6 11 6 13 -1 2 -5 10 -10 18 -10z
m4581 14 c-3 -3 -12 -4 -19 -1 -8 3 -5 6 6 6 11 1 17 -2 13 -5z m77 -149 c3
-9 0 -15 -8 -15 -8 0 -16 7 -20 15 -3 9 0 15 8 15 8 0 16 -7 20 -15z"/>
<path d="M7646 9187 c-18 -13 -18 -14 0 -21 10 -4 15 -4 11 0 -4 4 -2 13 4 21
15 17 8 17 -15 0z"/>
<path d="M7355 8941 c-3 -5 -1 -12 5 -16 5 -3 10 1 10 9 0 18 -6 21 -15 7z"/>
<path d="M7380 8942 c0 -10 41 -24 49 -17 6 7 0 11 -26 19 -13 4 -23 3 -23 -2z"/>
<path d="M7251 8854 c-11 -13 -10 -15 5 -12 14 2 18 -2 17 -17 -1 -11 0 -14 3
-7 3 6 22 13 42 13 21 1 51 5 67 10 21 5 15 6 -23 2 -41 -4 -52 -2 -50 9 4 19
-44 21 -61 2z m46 0 c-3 -3 -12 -4 -19 -1 -8 3 -5 6 6 6 11 1 17 -2 13 -5z"/>
<path d="M7440 8819 c0 -5 5 -7 10 -4 6 3 13 -1 16 -9 3 -9 10 -13 16 -10 12
8 -10 34 -28 34 -8 0 -14 -5 -14 -11z"/>
<path d="M7195 8790 c-3 -5 -1 -10 4 -10 6 0 11 5 11 10 0 6 -2 10 -4 10 -3 0
-8 -4 -11 -10z"/>
<path d="M7441 8774 c0 -11 3 -14 6 -6 3 7 2 16 -1 19 -3 4 -6 -2 -5 -13z"/>
<path d="M7526 8725 c-3 -9 -6 -22 -5 -28 0 -7 5 -1 10 12 5 13 8 26 5 28 -2
2 -6 -3 -10 -12z"/>
<path d="M7093 8694 c-7 -7 -13 -19 -13 -27 0 -7 -6 -19 -12 -27 -7 -8 -3 -6
10 4 12 11 22 25 22 32 0 7 5 14 12 16 7 3 8 7 3 10 -6 3 -16 0 -22 -8z"/>
<path d="M7191 8633 c-1 -45 2 -53 17 -52 9 0 12 3 5 5 -7 3 -10 11 -8 17 2 7
0 28 -4 47 -9 34 -9 33 -10 -17z"/>
<path d="M7428 8669 c13 -5 30 -5 38 -1 9 5 1 8 -23 9 -33 1 -35 0 -15 -8z"/>
<path d="M7240 8626 c0 -14 4 -27 8 -30 5 -3 6 8 4 25 -5 35 -12 38 -12 5z"/>
<path d="M7085 8584 c9 -9 19 -13 23 -10 3 4 0 11 -8 16 -24 15 -33 11 -15 -6z"/>
<path d="M4925 8790 c3 -5 10 -10 16 -10 5 0 9 5 9 10 0 6 -7 10 -16 10 -8 0
-12 -4 -9 -10z"/>
<path d="M7360 8629 c0 -5 5 -7 10 -4 6 3 10 8 10 11 0 2 -4 4 -10 4 -5 0 -10
-5 -10 -11z"/>
<path d="M7620 8560 c0 -5 5 -10 11 -10 5 0 7 5 4 10 -3 6 -8 10 -11 10 -2 0
-4 -4 -4 -10z"/>
<path d="M7495 8535 l-30 -13 45 3 c25 1 57 3 73 4 15 0 27 5 27 10 0 5 -16 5
-37 0 -49 -11 -61 -11 -43 1 21 14 1 11 -35 -5z"/>
<path d="M7635 8530 c-3 -5 -1 -10 4 -10 6 0 11 5 11 10 0 6 -2 10 -4 10 -3 0
-8 -4 -11 -10z"/>
<path d="M7430 8510 c-8 -5 -11 -12 -7 -16 4 -4 15 0 24 9 18 18 8 23 -17 7z"/>
<path d="M7351 8481 c-9 -6 -10 -11 -2 -15 6 -4 9 -11 6 -16 -3 -4 5 -6 17 -2
21 5 21 6 2 13 -17 7 -17 8 -1 10 9 1 23 2 30 3 6 1 18 -2 25 -7 7 -6 12 -6
12 1 0 20 -62 30 -89 13z"/>
<path d="M7315 8460 c-3 -5 -1 -10 4 -10 6 0 11 5 11 10 0 6 -2 10 -4 10 -3 0
-8 -4 -11 -10z"/>
<path d="M7260 8456 c0 -2 7 -6 15 -10 8 -3 15 -1 15 4 0 6 -7 10 -15 10 -8 0
-15 -2 -15 -4z"/>
<path d="M7675 8440 c-3 -5 -1 -10 4 -10 6 0 11 5 11 10 0 6 -2 10 -4 10 -3 0
-8 -4 -11 -10z"/>
<path d="M7628 8433 c7 -3 16 -2 19 1 4 3 -2 6 -13 5 -11 0 -14 -3 -6 -6z"/>
<path d="M7363 8423 c9 -2 23 -2 30 0 6 3 -1 5 -18 5 -16 0 -22 -2 -12 -5z"/>
<path d="M7120 8410 c0 -5 7 -10 15 -10 8 0 15 5 15 10 0 6 -7 10 -15 10 -8 0
-15 -4 -15 -10z"/>
<path d="M7228 8413 c6 -2 18 -2 25 0 6 3 1 5 -13 5 -14 0 -19 -2 -12 -5z"/>
<path d="M7208 8393 c7 -3 16 -2 19 1 4 3 -2 6 -13 5 -11 0 -14 -3 -6 -6z"/>
<path d="M5930 8460 c8 -5 20 -10 25 -10 6 0 3 5 -5 10 -8 5 -19 10 -25 10 -5
0 -3 -5 5 -10z"/>
<path d="M6283 8383 c9 -2 23 -2 30 0 6 3 -1 5 -18 5 -16 0 -22 -2 -12 -5z"/>
<path d="M6515 8160 c-3 -5 -1 -10 4 -10 6 0 11 5 11 10 0 6 -2 10 -4 10 -3 0
-8 -4 -11 -10z"/>
<path d="M7528 8373 c6 -2 18 -2 25 0 6 3 1 5 -13 5 -14 0 -19 -2 -12 -5z"/>
<path d="M7617 8360 c3 -11 7 -20 9 -20 2 0 4 9 4 20 0 11 -4 20 -9 20 -5 0
-7 -9 -4 -20z"/>
<path d="M6750 8320 c8 -5 20 -10 25 -10 6 0 3 5 -5 10 -8 5 -19 10 -25 10 -5
0 -3 -5 5 -10z"/>
<path d="M6817 8299 c7 -7 15 -10 18 -7 3 3 -2 9 -12 12 -14 6 -15 5 -6 -5z"/>
<path d="M7660 8266 c0 -2 7 -7 16 -10 8 -3 12 -2 9 4 -6 10 -25 14 -25 6z"/>
<path d="M6686 8225 c-9 -26 -7 -32 5 -12 6 10 9 21 6 23 -2 3 -7 -2 -11 -11z"/>
<path d="M6555 8080 c-3 -5 -1 -10 4 -10 6 0 11 5 11 10 0 6 -2 10 -4 10 -3 0
-8 -4 -11 -10z"/>
<path d="M6578 8053 c7 -3 16 -2 19 1 4 3 -2 6 -13 5 -11 0 -14 -3 -6 -6z"/>
<path d="M7050 8030 c-8 -5 -10 -10 -5 -10 6 0 17 5 25 10 8 5 11 10 5 10 -5
0 -17 -5 -25 -10z"/>
<path d="M6970 8010 c0 -5 4 -10 9 -10 6 0 13 5 16 10 3 6 -1 10 -9 10 -9 0
-16 -4 -16 -10z"/>
<path d="M6880 8000 c0 -5 4 -10 9 -10 6 0 13 5 16 10 3 6 -1 10 -9 10 -9 0
-16 -4 -16 -10z"/>
<path d="M6648 7923 c7 -3 16 -2 19 1 4 3 -2 6 -13 5 -11 0 -14 -3 -6 -6z"/>
<path d="M6705 7920 c-13 -6 -15 -9 -5 -9 8 0 22 4 30 9 18 12 2 12 -25 0z"/>
<path d="M6598 7903 c6 -2 18 -2 25 0 6 3 1 5 -13 5 -14 0 -19 -2 -12 -5z"/>
<path d="M6648 7903 c7 -3 16 -2 19 1 4 3 -2 6 -13 5 -11 0 -14 -3 -6 -6z"/>
<path d="M4675 8050 c-3 -5 -2 -10 4 -10 5 0 13 5 16 10 3 6 2 10 -4 10 -5 0
-13 -4 -16 -10z"/>
<path d="M4716 8042 c-2 -4 -1 -14 3 -21 6 -9 11 -10 15 -2 4 6 2 11 -4 11 -6
0 -8 5 -5 10 3 6 4 10 1 10 -3 0 -7 -4 -10 -8z"/>
<path d="M7575 8130 c-3 -5 -2 -10 4 -10 5 0 13 5 16 10 3 6 2 10 -4 10 -5 0
-13 -4 -16 -10z"/>
<path d="M7357 8054 c-3 -3 -3 -12 0 -20 3 -8 -1 -14 -8 -14 -11 0 -11 -3 1
-10 8 -5 22 -9 30 -9 10 0 8 3 -5 9 l-20 9 20 1 c20 1 20 1 0 12 -19 11 -19
11 0 19 15 6 16 8 4 8 -9 1 -18 -2 -22 -5z"/>
<path d="M7300 8000 c0 -5 10 -10 23 -10 18 0 19 2 7 10 -19 13 -30 13 -30 0z"/>
<path d="M7185 7990 c-16 -7 -17 -9 -3 -9 9 -1 20 4 23 9 7 11 7 11 -20 0z"/>
<path d="M7723 8032 c-8 -5 1 -8 22 -8 21 0 30 3 22 8 -6 4 -16 8 -22 8 -5 0
-16 -4 -22 -8z"/>
<path d="M7436 7942 c-3 -5 8 -6 25 -4 16 2 29 6 29 8 0 8 -49 4 -54 -4z"/>
<path d="M7361 7914 c0 -11 3 -14 6 -6 3 7 2 16 -1 19 -3 4 -6 -2 -5 -13z"/>
<path d="M7406 7915 c-3 -8 -1 -15 4 -15 6 0 10 7 10 15 0 8 -2 15 -4 15 -2 0
-6 -7 -10 -15z"/>
<path d="M7362 7775 c0 -16 2 -22 5 -12 2 9 2 23 0 30 -3 6 -5 -1 -5 -18z"/>
<path d="M6438 7733 c7 -3 16 -2 19 1 4 3 -2 6 -13 5 -11 0 -14 -3 -6 -6z"/>
<path d="M6781 7704 c0 -11 3 -14 6 -6 3 7 2 16 -1 19 -3 4 -6 -2 -5 -13z"/>
<path d="M7393 7635 c0 -22 2 -30 4 -17 2 12 2 30 0 40 -3 9 -5 -1 -4 -23z"/>
<path d="M7033 7360 c0 -25 2 -35 4 -22 2 12 2 32 0 45 -2 12 -4 2 -4 -23z"/>
<path d="M7245 7380 c3 -5 11 -10 16 -10 6 0 7 5 4 10 -3 6 -11 10 -16 10 -6
0 -7 -4 -4 -10z"/>
<path d="M7398 7363 c7 -3 16 -2 19 1 4 3 -2 6 -13 5 -11 0 -14 -3 -6 -6z"/>
<path d="M7380 7340 c8 -5 20 -10 25 -10 6 0 3 5 -5 10 -8 5 -19 10 -25 10 -5
0 -3 -5 5 -10z"/>
<path d="M7080 7290 c0 -5 5 -10 10 -10 6 0 10 5 10 10 0 6 -4 10 -10 10 -5 0
-10 -4 -10 -10z"/>
<path d="M7245 7280 c-3 -5 -1 -10 4 -10 6 0 11 5 11 10 0 6 -2 10 -4 10 -3 0
-8 -4 -11 -10z"/>
<path d="M7185 7254 l-30 -13 30 6 c32 6 41 11 34 17 -2 2 -17 -2 -34 -10z"/>
<path d="M7205 7230 c3 -5 8 -10 11 -10 2 0 4 5 4 10 0 6 -5 10 -11 10 -5 0
-7 -4 -4 -10z"/>
<path d="M7030 7191 c0 -4 11 -6 25 -3 14 2 25 6 25 8 0 2 -11 4 -25 4 -14 0
-25 -4 -25 -9z"/>
<path d="M7292 7180 c0 -14 2 -19 5 -12 2 6 2 18 0 25 -3 6 -5 1 -5 -13z"/>
<path d="M6950 7150 c-9 -6 -10 -10 -3 -10 6 0 15 5 18 10 8 12 4 12 -15 0z"/>
<path d="M7031 7134 c0 -11 3 -14 6 -6 3 7 2 16 -1 19 -3 4 -6 -2 -5 -13z"/>
<path d="M6788 7083 c6 -2 18 -2 25 0 6 3 1 5 -13 5 -14 0 -19 -2 -12 -5z"/>
<path d="M6548 7063 c7 -3 16 -2 19 1 4 3 -2 6 -13 5 -11 0 -14 -3 -6 -6z"/>
<path d="M5870 6981 c0 -6 6 -11 13 -12 6 0 71 -3 142 -7 72 -3 153 -6 180 -7
28 0 53 -4 56 -8 3 -5 9 1 12 12 5 21 2 21 -161 21 -92 0 -184 3 -204 6 -25 5
-38 3 -38 -5z"/>
<path d="M7021 6934 c0 -11 3 -14 6 -6 3 7 2 16 -1 19 -3 4 -6 -2 -5 -13z"/>
<path d="M7282 6860 c0 -14 2 -19 5 -12 2 6 2 18 0 25 -3 6 -5 1 -5 -13z"/>
<path d="M6441 6774 c0 -11 3 -14 6 -6 3 7 2 16 -1 19 -3 4 -6 -2 -5 -13z"/>
<path d="M7152 6710 c0 -19 2 -27 5 -17 2 9 2 25 0 35 -3 9 -5 1 -5 -18z"/>
<path d="M7149 6628 c-3 -22 -1 -34 4 -29 5 5 7 21 5 37 -3 27 -4 26 -9 -8z"/>
<path d="M7440 6640 c0 -6 7 -10 15 -10 8 0 15 2 15 4 0 2 -7 6 -15 10 -8 3
-15 1 -15 -4z"/>
<path d="M7368 6613 c7 -3 16 -2 19 1 4 3 -2 6 -13 5 -11 0 -14 -3 -6 -6z"/>
<path d="M7020 6540 c-30 -10 -74 -22 -98 -26 -23 -3 -58 -17 -76 -29 -18 -12
-48 -25 -67 -28 -19 -3 -44 -8 -56 -12 -19 -6 -22 -3 -26 27 -4 30 -4 29 -3
-5 1 -32 -1 -37 -16 -34 -15 4 -18 -1 -18 -31 1 -32 2 -35 13 -20 7 9 42 26
77 38 51 17 65 19 71 8 7 -10 9 -10 9 0 0 15 20 24 159 71 58 20 106 42 109
49 5 17 -13 15 -78 -8z"/>
<path d="M7548 6533 c7 -3 16 -2 19 1 4 3 -2 6 -13 5 -11 0 -14 -3 -6 -6z"/>
<path d="M7670 6530 c8 -5 24 -10 34 -10 26 0 18 6 -19 14 -22 5 -26 4 -15 -4z"/>
<path d="M7628 6523 c7 -3 16 -2 19 1 4 3 -2 6 -13 5 -11 0 -14 -3 -6 -6z"/>
<path d="M7773 6523 c9 -2 17 -9 17 -14 0 -6 5 -7 11 -3 14 8 -8 24 -31 23
-11 -1 -10 -3 3 -6z"/>
<path d="M6662 6495 c0 -16 2 -22 5 -12 2 9 2 23 0 30 -3 6 -5 -1 -5 -18z"/>
<path d="M6990 6480 c-13 -8 -12 -10 3 -10 9 0 17 5 17 10 0 12 -1 12 -20 0z"/>
<path d="M6852 6260 c0 -14 2 -19 5 -12 2 6 2 18 0 25 -3 6 -5 1 -5 -13z"/>
<path d="M6862 6190 c0 -19 2 -27 5 -17 2 9 2 25 0 35 -3 9 -5 1 -5 -18z"/>
<path d="M6852 6093 c-1 -17 -5 -40 -8 -50 -5 -14 -4 -15 5 -7 7 7 11 28 8 50
-3 35 -4 35 -5 7z"/>
<path d="M7043 5920 c0 -25 2 -35 4 -22 2 12 2 32 0 45 -2 12 -4 2 -4 -23z"/>
<path d="M7223 5869 c11 -7 23 -7 35 0 14 9 11 10 -18 10 -29 0 -32 -1 -17
-10z"/>
<path d="M7101 5844 c0 -11 3 -14 6 -6 3 7 2 16 -1 19 -3 4 -6 -2 -5 -13z"/>
<path d="M7143 5795 c0 -27 2 -38 4 -22 2 15 2 37 0 50 -2 12 -4 0 -4 -28z"/>
<path d="M7175 5827 c-4 -10 -5 -21 -1 -24 10 -10 18 4 13 24 -4 17 -4 17 -12
0z"/>
<path d="M7210 5831 c0 -6 5 -13 11 -16 15 -10 61 4 54 15 -8 13 -65 13 -65 1z"/>
<path d="M7188 5793 c-10 -2 -18 -9 -18 -14 0 -14 16 -11 30 6 7 8 11 14 9 14
-2 -1 -12 -3 -21 -6z"/>
<path d="M7225 5781 c3 -10 1 -29 -4 -42 -9 -21 -10 -22 -11 -4 0 17 -2 17
-10 5 -8 -13 -10 -12 -10 3 0 9 -5 17 -11 17 -6 0 -8 -7 -5 -16 5 -12 2 -15
-13 -11 -10 2 -25 1 -32 -4 -8 -5 -9 -9 -4 -10 6 0 19 -3 30 -5 11 -3 31 -5
45 -6 38 -1 48 -11 20 -20 -20 -6 -19 -6 5 -2 17 3 47 7 68 7 39 2 53 23 15
24 -69 1 -68 1 -68 43 0 22 -5 40 -11 40 -6 0 -8 -8 -4 -19z"/>
<path d="M7262 5770 c0 -19 2 -27 5 -17 2 9 2 25 0 35 -3 9 -5 1 -5 -18z"/>
<path d="M7322 5780 c0 -14 2 -19 5 -12 2 6 2 18 0 25 -3 6 -5 1 -5 -13z"/>
<path d="M7292 5660 c0 -14 2 -19 5 -12 2 6 2 18 0 25 -3 6 -5 1 -5 -13z"/>
<path d="M7323 5600 c0 -30 2 -43 4 -27 2 15 2 39 0 55 -2 15 -4 2 -4 -28z"/>
<path d="M7170 5484 c0 -8 5 -12 10 -9 6 3 10 10 10 16 0 5 -4 9 -10 9 -5 0
-10 -7 -10 -16z"/>
<path d="M7282 5440 c0 -14 2 -19 5 -12 2 6 2 18 0 25 -3 6 -5 1 -5 -13z"/>
<path d="M7301 5444 c0 -11 3 -14 6 -6 3 7 2 16 -1 19 -3 4 -6 -2 -5 -13z"/>
<path d="M7164 5395 c-3 -8 -2 -47 4 -87 l10 -73 -2 87 c0 48 -2 88 -4 88 -1
0 -5 -7 -8 -15z"/>
<path d="M7316 5318 c-12 -138 -16 -242 -7 -223 8 18 22 285 16 285 -2 0 -6
-28 -9 -62z"/>
<path d="M7291 5354 c0 -11 3 -14 6 -6 3 7 2 16 -1 19 -3 4 -6 -2 -5 -13z"/>
<path d="M7482 5295 c0 -16 2 -22 5 -12 2 9 2 23 0 30 -3 6 -5 -1 -5 -18z"/>
<path d="M7442 5210 c0 -19 2 -27 5 -17 2 9 2 25 0 35 -3 9 -5 1 -5 -18z"/>
<path d="M6995 5220 c3 -5 8 -10 11 -10 2 0 4 5 4 10 0 6 -5 10 -11 10 -5 0
-7 -4 -4 -10z"/>
<path d="M7360 5133 c0 -18 2 -33 4 -33 9 0 13 39 5 51 -6 10 -9 4 -9 -18z"/>
<path d="M7240 5125 c0 -8 5 -15 10 -15 6 0 10 7 10 15 0 8 -4 15 -10 15 -5 0
-10 -7 -10 -15z"/>
<path d="M6902 5050 c0 -19 2 -27 5 -17 2 9 2 25 0 35 -3 9 -5 1 -5 -18z"/>
<path d="M7052 5055 c0 -16 2 -22 5 -12 2 9 2 23 0 30 -3 6 -5 -1 -5 -18z"/>
<path d="M7166 5049 c-9 -46 -8 -49 14 -49 17 0 20 -7 20 -40 0 -38 -2 -40
-30 -40 -28 0 -30 -2 -30 -40 0 -30 4 -40 16 -40 14 0 15 -10 9 -80 -6 -70 -5
-80 9 -80 12 0 16 -10 16 -42 l1 -43 19 50 c11 28 20 64 20 80 0 17 7 41 15
55 8 14 19 35 24 48 15 31 17 28 13 -23 -2 -25 -8 -45 -13 -45 -14 0 -9 -91 7
-130 11 -28 13 -30 9 -7 -4 20 -1 27 10 27 10 0 15 -10 15 -27 1 -24 2 -26 11
-10 16 27 7 50 -21 58 -25 7 -25 7 -2 8 23 1 23 3 20 86 -2 54 1 84 7 82 6 -2
10 -42 10 -90 0 -63 3 -87 13 -87 9 0 12 25 12 90 l0 90 40 1 c22 1 45 3 50 4
6 1 14 3 20 4 5 0 7 8 4 16 -5 11 -21 15 -63 13 l-56 -1 45 -7 c41 -7 40 -8
-18 -6 -34 2 -61 7 -60 12 2 5 9 8 16 6 19 -4 14 16 -5 21 -10 3 10 2 44 -1
l62 -5 -11 31 c-13 33 -28 34 -28 1 0 -25 -20 -25 -27 1 -5 19 -6 19 -18 4
-16 -23 -36 -9 -33 24 3 22 -1 27 -19 26 -13 0 -23 3 -23 8 0 4 9 8 20 8 16 0
20 7 20 30 0 23 -4 30 -20 30 -13 0 -20 -7 -20 -20 0 -17 -7 -20 -40 -20 -34
0 -41 4 -46 25 -8 34 -20 31 -28 -6z m64 -139 c0 -5 -4 -10 -10 -10 -5 0 -10
5 -10 10 0 6 5 10 10 10 6 0 10 -4 10 -10z m57 -32 c-3 -8 -6 -5 -6 6 -1 11 2
17 5 13 3 -3 4 -12 1 -19z m-47 -52 c0 -8 -5 -18 -11 -21 -6 -4 -14 -17 -19
-29 -7 -17 -9 -13 -9 22 -1 36 2 42 19 42 11 0 20 -6 20 -14z"/>
<path d="M7461 5054 c0 -11 3 -14 6 -6 3 7 2 16 -1 19 -3 4 -6 -2 -5 -13z"/>
<path d="M7122 5030 c0 -19 2 -27 5 -17 2 9 2 25 0 35 -3 9 -5 1 -5 -18z"/>
<path d="M7003 4960 c0 -25 2 -35 4 -22 2 12 2 32 0 45 -2 12 -4 2 -4 -23z"/>
<path d="M7052 4970 c-1 -19 -5 -46 -7 -60 l-6 -25 11 25 c6 13 9 40 7 60 l-4
35 -1 -35z"/>
<path d="M7070 4986 c0 -8 5 -18 10 -21 6 -3 10 3 10 14 0 12 -4 21 -10 21 -5
0 -10 -6 -10 -14z"/>
<path d="M7460 4984 c0 -8 5 -12 10 -9 6 3 10 10 10 16 0 5 -4 9 -10 9 -5 0
-10 -7 -10 -16z"/>
<path d="M7107 4883 c-3 -60 -3 -123 1 -141 4 -19 8 24 9 108 2 77 1 140 0
140 -2 0 -7 -48 -10 -107z"/>
<path d="M6892 4900 c0 -14 2 -19 5 -12 2 6 2 18 0 25 -3 6 -5 1 -5 -13z"/>
<path d="M6952 4860 c0 -14 2 -19 5 -12 2 6 2 18 0 25 -3 6 -5 1 -5 -13z"/>
<path d="M7051 4858 c1 -7 5 -24 9 -38 8 -24 8 -24 9 7 1 17 -3 35 -9 38 -5 3
-10 0 -9 -7z"/>
<path d="M6933 4800 c0 -25 2 -35 4 -22 2 12 2 32 0 45 -2 12 -4 2 -4 -23z"/>
<path d="M7406 4763 c13 -113 8 -231 -11 -249 -22 -22 -9 -35 20 -22 l25 11 0
164 c0 107 3 162 10 158 6 -3 10 -1 10 4 0 6 -14 11 -31 11 l-31 0 8 -77z"/>
<path d="M7052 4740 c0 -14 2 -19 5 -12 2 6 2 18 0 25 -3 6 -5 1 -5 -13z"/>
<path d="M7088 4695 c-3 -27 -5 -52 -3 -53 2 -2 12 1 22 7 10 6 13 11 6 11 -7
0 -13 18 -15 43 l-3 42 -7 -50z"/>
<path d="M7451 4694 c0 -11 3 -14 6 -6 3 7 2 16 -1 19 -3 4 -6 -2 -5 -13z"/>
<path d="M6923 4640 c0 -25 2 -35 4 -22 2 12 2 32 0 45 -2 12 -4 2 -4 -23z"/>
<path d="M7075 4609 c-8 -12 -8 -400 0 -407 4 -5 7 56 11 218 0 30 2 64 3 75
l2 20 9 -20 c7 -17 9 -15 9 13 1 32 -12 43 -23 20 -3 -7 -4 11 -2 40 3 54 2
60 -9 41z"/>
<path d="M7751 4568 c-1 -36 3 -48 14 -48 8 0 15 6 15 14 0 8 2 20 3 28 2 7 2
9 -1 4 -3 -5 -10 4 -18 20 -12 29 -12 29 -13 -18z"/>
<path d="M7100 4589 c0 -5 5 -7 10 -4 6 3 10 8 10 11 0 2 -4 4 -10 4 -5 0 -10
-5 -10 -11z"/>
<path d="M7256 4578 c-3 -13 -5 -32 -5 -43 1 -11 5 -2 10 19 10 42 6 62 -5 24z"/>
<path d="M6928 4583 c7 -3 16 -2 19 1 4 3 -2 6 -13 5 -11 0 -14 -3 -6 -6z"/>
<path d="M6915 4560 c-4 -6 5 -10 20 -10 15 0 24 4 20 10 -3 6 -12 10 -20 10
-8 0 -17 -4 -20 -10z"/>
<path d="M7120 4485 c0 -9 5 -15 11 -13 6 2 11 8 11 13 0 5 -5 11 -11 13 -6 2
-11 -4 -11 -13z"/>
<path d="M7103 4360 c0 -47 2 -66 4 -42 2 23 2 61 0 85 -2 23 -4 4 -4 -43z"/>
<path d="M7120 4353 c0 -21 3 -24 9 -14 5 8 7 20 4 28 -8 21 -13 15 -13 -14z"/>
<path d="M7470 4359 c0 -5 5 -7 10 -4 6 3 10 8 10 11 0 2 -4 4 -10 4 -5 0 -10
-5 -10 -11z"/>
<path d="M7800 4270 c0 -5 5 -10 10 -10 6 0 10 5 10 10 0 6 -4 10 -10 10 -5 0
-10 -4 -10 -10z"/>
<path d="M7102 4225 c0 -16 2 -22 5 -12 2 9 2 23 0 30 -3 6 -5 -1 -5 -18z"/>
<path d="M7201 4184 c0 -11 3 -14 6 -6 3 7 2 16 -1 19 -3 4 -6 -2 -5 -13z"/>
<path d="M6960 4158 c0 -3 8 -9 18 -11 16 -4 16 -5 0 -6 -11 -1 -18 -9 -18
-20 0 -11 -3 -26 -6 -35 -5 -12 0 -16 22 -16 16 0 24 4 18 8 -21 14 -20 37 2
54 24 19 44 23 44 9 0 -5 18 -11 40 -13 40 -4 53 5 24 16 -9 3 -27 6 -40 6
-13 0 -24 3 -24 8 0 4 -18 7 -40 7 -22 0 -40 -3 -40 -7z"/>
<path d="M7201 4134 c0 -11 3 -14 6 -6 3 7 2 16 -1 19 -3 4 -6 -2 -5 -13z"/>
<path d="M7001 4106 c2 -2 18 -6 34 -10 22 -5 26 -4 15 4 -14 9 -59 15 -49 6z"/>
<path d="M7128 4083 c7 -3 16 -2 19 1 4 3 -2 6 -13 5 -11 0 -14 -3 -6 -6z"/>
<path d="M7038 4068 c5 -5 16 -8 23 -6 8 3 3 7 -10 11 -17 4 -21 3 -13 -5z"/>
<path d="M7098 4063 c7 -3 16 -2 19 1 4 3 -2 6 -13 5 -11 0 -14 -3 -6 -6z"/>
<path d="M7570 3930 c0 -13 11 -13 30 0 12 8 11 10 -7 10 -13 0 -23 -4 -23
-10z"/>
<path d="M6880 3300 c0 -5 5 -10 11 -10 5 0 7 5 4 10 -3 6 -8 10 -11 10 -2 0
-4 -4 -4 -10z"/>
<path d="M6834 3228 c-4 -6 -3 -8 4 -4 5 3 13 0 15 -6 3 -8 6 -6 6 5 1 19 -14
23 -25 5z"/>
<path d="M1833 7915 c0 -22 2 -30 4 -17 2 12 2 30 0 40 -3 9 -5 -1 -4 -23z"/>
<path d="M1816 7808 c-3 -29 -9 -73 -13 -98 -3 -25 -3 -43 0 -40 8 7 30 180
24 186 -2 3 -7 -19 -11 -48z"/>
<path d="M1792 7620 c0 -14 2 -19 5 -12 2 6 2 18 0 25 -3 6 -5 1 -5 -13z"/>
<path d="M7730 7770 c0 -6 7 -10 15 -10 8 0 15 2 15 4 0 2 -7 6 -15 10 -8 3
-15 1 -15 -4z"/>
<path d="M7677 7743 c-4 -3 -7 -15 -7 -26 0 -25 13 -14 17 13 3 21 1 24 -10
13z"/>
<path d="M7682 7673 c-6 -2 -10 -9 -7 -13 7 -11 35 -2 35 11 0 10 -8 10 -28 2z"/>
<path d="M7740 7554 c0 -11 -6 -14 -22 -8 -13 3 -20 3 -15 -1 4 -5 -1 -17 -10
-29 -15 -17 -11 -16 27 6 47 27 62 48 36 48 -9 0 -16 -7 -16 -16z"/>
<path d="M7710 7295 c-36 -26 -29 -33 15 -13 14 6 25 16 25 21 0 6 3 8 6 5 11
-12 -16 -45 -46 -58 -16 -7 -30 -17 -30 -22 0 -5 23 3 50 18 52 28 54 31 44
58 -8 22 -23 19 -64 -9z"/>
<path d="M7705 7146 c-18 -19 -26 -36 -18 -36 9 0 37 40 31 45 -2 2 -8 -2 -13
-9z"/>
<path d="M7709 7097 c-18 -14 -34 -67 -20 -67 8 0 17 21 19 44 0 5 6 12 13 17
8 4 11 10 9 13 -3 2 -12 -1 -21 -7z"/>
<path d="M7720 7020 c0 -5 -6 -10 -14 -10 -8 0 -17 -7 -20 -16 -4 -11 2 -10
24 6 32 22 37 30 20 30 -5 0 -10 -4 -10 -10z"/>
<path d="M7680 6948 c0 -19 2 -20 10 -8 13 19 13 30 0 30 -5 0 -10 -10 -10
-22z"/>
<path d="M5865 7760 c27 -12 43 -12 25 0 -8 5 -22 9 -30 9 -10 0 -8 -3 5 -9z"/>
<path d="M5928 7703 c7 -3 16 -2 19 1 4 3 -2 6 -13 5 -11 0 -14 -3 -6 -6z"/>
<path d="M1893 5707 c5 -15 37 -22 37 -9 0 5 -9 12 -21 15 -13 3 -19 1 -16 -6z"/>
<path d="M4560 5660 c0 -5 7 -10 16 -10 8 0 12 5 9 10 -3 6 -10 10 -16 10 -5
0 -9 -4 -9 -10z"/>
<path d="M7654 5969 c-3 -5 7 -9 22 -9 15 0 24 3 20 7 -11 11 -35 12 -42 2z"/>
<path d="M7699 5733 c-13 -16 -12 -17 4 -4 16 13 21 21 13 21 -2 0 -10 -8 -17
-17z"/>
<path d="M6589 5358 c-3 -38 -1 -79 4 -84 13 -14 27 8 17 26 -6 11 -8 31 -4
45 4 15 2 25 -5 25 -6 0 -11 -6 -12 -12z"/>
<path d="M4385 4445 c0 -269 1 -378 2 -242 2 137 2 357 0 490 -1 133 -2 22 -2
-248z"/>
<path d="M4383 3845 c0 -22 2 -30 4 -17 2 12 2 30 0 40 -3 9 -5 -1 -4 -23z"/>
<path d="M4380 3656 l0 -147 -387 3 c-214 2 -510 2 -660 1 -249 -3 -272 -4
-276 -20 -3 -12 -5 -8 -6 9 -1 30 -21 50 -21 21 0 -15 -10 -18 -55 -20 -60 -3
-95 -16 -95 -36 0 -9 139 -11 622 -9 397 2 656 -1 713 -7 50 -6 104 -11 121
-11 27 0 32 -4 38 -31 3 -17 6 -263 6 -547 0 -283 2 -513 4 -511 8 7 11 1438
3 1445 -4 4 -7 -59 -7 -140z"/>
<path d="M4381 2324 c0 -11 3 -14 6 -6 3 7 2 16 -1 19 -3 4 -6 -2 -5 -13z"/>
<path d="M1818 5003 c7 -3 16 -2 19 1 4 3 -2 6 -13 5 -11 0 -14 -3 -6 -6z"/>
<path d="M1842 4660 c0 -14 2 -19 5 -12 2 6 2 18 0 25 -3 6 -5 1 -5 -13z"/>
<path d="M5470 4509 c0 -9 9 -24 20 -34 12 -10 18 -25 16 -32 -4 -9 5 -12 29
-11 22 1 32 5 28 13 -2 7 -13 11 -24 8 -10 -3 -19 -1 -19 3 0 5 -11 23 -25 39
-17 21 -24 25 -25 14z"/>
<path d="M5601 4503 c0 -10 4 -27 9 -38 7 -16 9 -13 9 18 1 20 -3 37 -9 37 -5
0 -10 -8 -9 -17z"/>
<path d="M5571 4376 c-7 -8 -22 -17 -34 -19 -21 -4 -21 -4 -1 -6 22 -1 63 24
53 33 -3 4 -12 0 -18 -8z"/>
<path d="M5710 4350 c0 -5 5 -10 10 -10 6 0 10 5 10 10 0 6 -4 10 -10 10 -5 0
-10 -4 -10 -10z"/>
<path d="M5682 4300 c0 -19 2 -27 5 -17 2 9 2 25 0 35 -3 9 -5 1 -5 -18z"/>
<path d="M6002 4260 c0 -8 8 -33 18 -55 l18 -40 -1 33 c0 18 -5 36 -12 40 -7
4 -15 14 -18 22 -5 13 -5 13 -5 0z"/>
<path d="M5715 4250 c-4 -6 3 -10 14 -10 25 0 27 6 6 13 -8 4 -17 2 -20 -3z"/>
<path d="M5803 4233 c9 -2 23 -2 30 0 6 3 -1 5 -18 5 -16 0 -22 -2 -12 -5z"/>
<path d="M5971 4214 c0 -11 3 -14 6 -6 3 7 2 16 -1 19 -3 4 -6 -2 -5 -13z"/>
<path d="M6130 4126 c0 -2 9 -6 20 -9 11 -3 20 -1 20 4 0 5 -9 9 -20 9 -11 0
-20 -2 -20 -4z"/>
<path d="M6160 4064 c0 -8 5 -12 10 -9 6 3 10 10 10 16 0 5 -4 9 -10 9 -5 0
-10 -7 -10 -16z"/>
<path d="M6144 3965 c-4 -8 -1 -22 6 -30 13 -16 -1 -26 -30 -22 -8 1 -15 -2
-15 -8 0 -5 17 -10 38 -9 20 0 37 -3 37 -8 0 -4 11 -8 25 -8 23 0 24 2 13 20
-10 16 -10 24 0 40 17 28 15 33 -12 26 -14 -3 -28 -2 -31 4 -9 15 -25 12 -31
-5z m36 -15 c0 -5 -4 -10 -10 -10 -5 0 -10 5 -10 10 0 6 5 10 10 10 6 0 10 -4
10 -10z"/>
<path d="M5956 3952 c-10 -17 1 -70 20 -99 15 -23 19 -25 22 -10 2 11 13 17
30 17 26 -1 26 -1 8 -15 -19 -14 -18 -15 12 -15 27 0 31 3 28 23 -2 15 -12 24
-32 28 -16 4 -21 7 -11 8 11 1 17 9 17 25 0 18 -7 25 -27 28 -16 3 -35 8 -44
12 -10 4 -20 3 -23 -2z"/>
<path d="M6254 3907 c1 -58 8 -77 21 -57 4 6 2 16 -3 23 -6 7 -12 30 -15 52
-3 26 -4 19 -3 -18z"/>
<path d="M6105 3940 c-3 -5 -1 -10 4 -10 6 0 11 5 11 10 0 6 -2 10 -4 10 -3 0
-8 -4 -11 -10z"/>
<path d="M6480 3939 c0 -5 5 -7 10 -4 6 3 10 8 10 11 0 2 -4 4 -10 4 -5 0 -10
-5 -10 -11z"/>
<path d="M6067 3920 c-3 -11 -1 -23 4 -26 5 -3 9 6 9 20 0 31 -6 34 -13 6z"/>
<path d="M6556 3925 c-17 -13 -17 -14 10 -12 24 2 29 -2 28 -20 0 -13 5 -23
12 -23 8 0 11 6 8 15 -4 8 -1 22 6 30 10 12 10 15 -3 15 -8 0 -21 2 -29 5 -7
2 -21 -2 -32 -10z"/>
<path d="M6311 3814 c0 -11 3 -14 6 -6 3 7 2 16 -1 19 -3 4 -6 -2 -5 -13z"/>
<path d="M6298 3723 c7 -3 16 -2 19 1 4 3 -2 6 -13 5 -11 0 -14 -3 -6 -6z"/>
<path d="M6265 3710 c3 -5 11 -10 16 -10 6 0 7 5 4 10 -3 6 -11 10 -16 10 -6
0 -7 -4 -4 -10z"/>
<path d="M6151 3676 c9 -8 98 -13 93 -5 -3 5 -26 9 -51 9 -26 0 -44 -2 -42 -4z"/>
<path d="M6128 3643 c6 -2 18 -2 25 0 6 3 1 5 -13 5 -14 0 -19 -2 -12 -5z"/>
<path d="M6027 3634 c-15 -15 -6 -24 23 -24 17 0 30 5 30 10 0 6 -4 10 -9 10
-5 0 -16 2 -23 5 -8 3 -17 2 -21 -1z"/>
<path d="M6598 3434 c-3 -5 -9 -89 -13 -186 -7 -177 -7 -178 14 -178 21 0 21
4 20 168 0 155 -7 219 -21 196z"/>
<path d="M5450 4379 c0 -5 5 -7 10 -4 6 3 10 8 10 11 0 2 -4 4 -10 4 -5 0 -10
-5 -10 -11z"/>
<path d="M5451 4343 c-1 -12 4 -25 9 -28 12 -7 12 2 0 30 -8 19 -9 19 -9 -2z"/>
<path d="M2645 3450 c3 -5 8 -10 11 -10 2 0 4 5 4 10 0 6 -5 10 -11 10 -5 0
-7 -4 -4 -10z"/>
<path d="M6780 2670 c0 -5 4 -10 9 -10 6 0 13 5 16 10 3 6 -1 10 -9 10 -9 0
-16 -4 -16 -10z"/>
<path d="M7258 2663 c7 -3 16 -2 19 1 4 3 -2 6 -13 5 -11 0 -14 -3 -6 -6z"/>
<path d="M6774 2530 c2 -45 10 -87 16 -95 10 -12 9 -15 -4 -15 -10 0 -15 -4
-12 -9 3 -5 1 -22 -4 -37 -6 -17 -7 -55 -2 -94 l8 -65 13 40 c16 50 29 135 21
135 -5 0 -5 46 1 76 1 5 1 39 0 77 -1 61 -3 67 -22 67 -19 0 -20 -4 -15 -80z"/>
<path d="M6208 2513 c17 -2 47 -2 65 0 17 2 3 4 -33 4 -36 0 -50 -2 -32 -4z"/>
<path d="M6198 2393 c7 -3 16 -2 19 1 4 3 -2 6 -13 5 -11 0 -14 -3 -6 -6z"/>
<path d="M6781 2159 c11 -71 19 -73 19 -6 0 41 -4 57 -14 57 -10 0 -11 -11 -5
-51z"/>
<path d="M6928 2093 c18 -2 45 -2 60 0 15 2 0 4 -33 4 -33 0 -45 -2 -27 -4z"/>
<path d="M6080 2050 c0 -5 5 -10 11 -10 5 0 7 5 4 10 -3 6 -8 10 -11 10 -2 0
-4 -4 -4 -10z"/>
<path d="M6084 1990 l0 -35 78 4 c61 2 78 0 78 -10 0 -9 5 -7 11 5 19 31 -26
44 -128 37 -23 -2 -32 2 -36 16 -2 10 -4 2 -3 -17z"/>
<path d="M6806 1925 c4 -8 13 -15 21 -15 8 0 12 4 9 9 -4 5 0 12 6 14 7 3 1 6
-14 6 -20 1 -26 -3 -22 -14z"/>
<path d="M6022 1888 c5 -15 52 -23 76 -13 12 4 13 8 3 18 -9 9 -14 9 -20 -2
-6 -9 -11 -10 -15 -2 -10 15 -49 14 -44 -1z"/>
<path d="M6286 1881 c-4 -5 3 -7 14 -4 23 6 26 13 6 13 -8 0 -17 -4 -20 -9z"/>
<path d="M6319 1863 c-12 -14 -12 -15 0 -9 7 5 48 12 90 16 l76 7 -76 2 c-61
1 -79 -2 -90 -16z"/>
<path d="M6825 1870 c3 -5 8 -10 11 -10 2 0 4 5 4 10 0 6 -5 10 -11 10 -5 0
-7 -4 -4 -10z"/>
<path d="M6585 1865 c25 -8 115 -11 115 -4 0 5 -28 9 -62 8 -35 0 -58 -2 -53
-4z"/>
<path d="M7288 1793 c7 -3 16 -2 19 1 4 3 -2 6 -13 5 -11 0 -14 -3 -6 -6z"/>
<path d="M6668 1663 c6 -2 18 -2 25 0 6 3 1 5 -13 5 -14 0 -19 -2 -12 -5z"/>
<path d="M6350 1650 c-19 -4 19 -5 85 -2 66 2 122 6 124 8 8 7 -174 1 -209 -6z"/>
<path d="M6205 1560 c19 -8 223 -14 214 -6 -2 2 -56 6 -119 9 -71 4 -107 3
-95 -3z"/>
<path d="M6218 1473 c7 -3 16 -2 19 1 4 3 -2 6 -13 5 -11 0 -14 -3 -6 -6z"/>
<path d="M6340 1470 c0 -5 5 -10 10 -10 6 0 10 5 10 10 0 6 -4 10 -10 10 -5 0
-10 -4 -10 -10z"/>
<path d="M7338 1423 c7 -3 16 -2 19 1 4 3 -2 6 -13 5 -11 0 -14 -3 -6 -6z"/>
<path d="M7198 1293 c6 -2 18 -2 25 0 6 3 1 5 -13 5 -14 0 -19 -2 -12 -5z"/>
<path d="M6728 1123 c12 -2 32 -2 45 0 12 2 2 4 -23 4 -25 0 -35 -2 -22 -4z"/>
<path d="M6628 1113 c6 -2 18 -2 25 0 6 3 1 5 -13 5 -14 0 -19 -2 -12 -5z"/>
<path d="M6181 1041 c8 -6 61 -20 118 -31 56 -12 116 -27 134 -35 18 -7 55
-16 82 -19 35 -4 43 -3 25 3 -47 17 -135 41 -185 51 -27 5 -68 15 -90 21 -64
17 -103 22 -84 10z"/>
<path d="M6211 835 c-1 -13 -72 -35 -131 -41 -140 -13 -486 -44 -554 -49 -43
-3 -82 -8 -87 -10 -4 -3 -87 -5 -183 -6 -124 0 -174 -4 -170 -11 11 -17 582 6
789 32 44 5 103 12 130 15 122 14 219 26 221 28 1 1 5 13 8 27 5 17 4 21 -2
11 -8 -11 -10 -11 -15 0 -3 8 -6 9 -6 4z"/>
<path d="M7791 644 c0 -11 3 -14 6 -6 3 7 2 16 -1 19 -3 4 -6 -2 -5 -13z"/>
<path d="M5986 541 c-4 -7 -5 -15 -2 -18 9 -9 19 4 14 18 -4 11 -6 11 -12 0z"/>
<path d="M5940 515 c0 -8 4 -15 9 -15 5 0 11 7 15 15 3 9 0 15 -9 15 -8 0 -15
-7 -15 -15z"/>
<path d="M6182 500 c0 -14 2 -19 5 -12 2 6 2 18 0 25 -3 6 -5 1 -5 -13z"/>
<path d="M5808 503 c6 -2 18 -2 25 0 6 3 1 5 -13 5 -14 0 -19 -2 -12 -5z"/>
<path d="M6033 493 c9 -2 25 -2 35 0 9 3 1 5 -18 5 -19 0 -27 -2 -17 -5z"/>
<path d="M6413 493 c9 -2 23 -2 30 0 6 3 -1 5 -18 5 -16 0 -22 -2 -12 -5z"/>
<path d="M5597 483 c-4 -3 -7 -13 -7 -22 0 -13 9 -15 45 -13 25 2 45 8 45 13
0 5 19 10 43 10 l42 2 -50 7 c-65 11 -110 12 -118 3z"/>
<path d="M5940 480 c0 -5 7 -10 16 -10 8 0 12 5 9 10 -3 6 -10 10 -16 10 -5 0
-9 -4 -9 -10z"/>
<path d="M4880 415 c0 -8 2 -15 4 -15 2 0 6 7 10 15 3 8 1 15 -4 15 -6 0 -10
-7 -10 -15z"/>
<path d="M5110 420 c-13 -9 -13 -10 0 -9 8 1 26 5 40 9 l25 8 -25 1 c-14 0
-32 -4 -40 -9z"/>
<path d="M5005 410 l-40 -7 35 -1 c19 -1 42 3 50 8 16 11 14 11 -45 0z"/>
<path d="M4424 329 c-3 -5 6 -9 20 -9 31 0 34 6 6 13 -11 3 -23 1 -26 -4z"/>
<path d="M7260 470 l25 -8 -24 -1 c-13 -1 -22 -3 -19 -6 7 -8 88 6 88 15 0 4
-21 7 -47 7 -37 0 -42 -2 -23 -7z"/>
<path d="M7053 463 c9 -2 23 -2 30 0 6 3 -1 5 -18 5 -16 0 -22 -2 -12 -5z"/>
<path d="M7178 463 c7 -3 16 -2 19 1 4 3 -2 6 -13 5 -11 0 -14 -3 -6 -6z"/>
<path d="M7408 463 c7 -3 16 -2 19 1 4 3 -2 6 -13 5 -11 0 -14 -3 -6 -6z"/>
<path d="M7300 435 c-6 -8 -10 -20 -7 -27 3 -9 7 -6 13 7 4 11 12 23 18 27 8
5 8 8 0 8 -6 0 -17 -7 -24 -15z"/>
<path d="M6505 370 c-3 -5 -1 -10 4 -10 6 0 11 5 11 10 0 6 -2 10 -4 10 -3 0
-8 -4 -11 -10z"/>
<path d="M7282 305 c0 -16 2 -22 5 -12 2 9 2 23 0 30 -3 6 -5 -1 -5 -18z"/>
<path d="M5000 359 c0 -6 6 -9 14 -6 9 4 17 -1 19 -11 3 -12 5 -11 6 6 1 16
-5 22 -19 22 -11 0 -20 -5 -20 -11z"/>
<path d="M7700 9369 c0 -5 5 -7 10 -4 6 3 10 8 10 11 0 2 -4 4 -10 4 -5 0 -10
-5 -10 -11z"/>
<path d="M7755 9370 c3 -5 8 -10 11 -10 2 0 4 5 4 10 0 6 -5 10 -11 10 -5 0
-7 -4 -4 -10z"/>
<path d="M7706 9318 c5 -7 2 -9 -9 -5 -11 4 -14 2 -10 -9 6 -16 23 -19 23 -4
0 6 8 10 18 10 14 0 15 2 2 10 -21 13 -33 12 -24 -2z"/>
<path d="M6968 9293 c7 -3 16 -2 19 1 4 3 -2 6 -13 5 -11 0 -14 -3 -6 -6z"/>
<path d="M7611 9297 c2 -1 13 -9 24 -17 19 -14 19 -14 6 3 -7 9 -18 17 -24 17
-6 0 -8 -1 -6 -3z"/>
<path d="M6893 9053 c9 -2 23 -2 30 0 6 3 -1 5 -18 5 -16 0 -22 -2 -12 -5z"/>
<path d="M6898 9033 c12 -2 30 -2 40 0 9 3 -1 5 -23 4 -22 0 -30 -2 -17 -4z"/>
<path d="M6900 9010 c0 -5 5 -10 11 -10 5 0 7 5 4 10 -3 6 -8 10 -11 10 -2 0
-4 -4 -4 -10z"/>
<path d="M7073 8957 c4 -10 7 -22 7 -26 0 -4 7 -8 15 -8 15 0 15 0 -24 47 -2
3 -1 -3 2 -13z"/>
<path d="M7125 8890 c-3 -5 -2 -10 4 -10 5 0 13 5 16 10 3 6 2 10 -4 10 -5 0
-13 -4 -16 -10z"/>
<path d="M7043 8744 c0 -17 2 -22 7 -13 5 6 6 18 3 26 -8 19 -10 16 -10 -13z"/>
<path d="M7010 8739 c0 -5 5 -7 10 -4 6 3 10 8 10 11 0 2 -4 4 -10 4 -5 0 -10
-5 -10 -11z"/>
<path d="M6980 8699 c0 -5 5 -7 10 -4 6 3 10 8 10 11 0 2 -4 4 -10 4 -5 0 -10
-5 -10 -11z"/>
<path d="M4288 873 c6 -2 18 -2 25 0 6 3 1 5 -13 5 -14 0 -19 -2 -12 -5z"/>
<path d="M4336 871 c-4 -5 3 -7 14 -4 23 6 26 13 6 13 -8 0 -17 -4 -20 -9z"/>
<path d="M3910 800 c20 -13 60 -13 60 0 0 6 -17 10 -37 10 -28 0 -34 -3 -23
-10z"/>
<path d="M4351 84 c0 -11 3 -14 6 -6 3 7 2 16 -1 19 -3 4 -6 -2 -5 -13z"/>
<path d="M3785 10 c-3 -5 -1 -10 4 -10 6 0 11 5 11 10 0 6 -2 10 -4 10 -3 0
-8 -4 -11 -10z"/>
</g>
</svg>
